<svg width="134" height="74" viewBox="0 0 134 74" fill="none" xmlns="http://www.w3.org/2000/svg">
<path d="M36.283 52.6701V62.9551H1.77301V52.6701H13.843V26.9151C13.163 27.7651 12.0013 28.6717 10.358 29.6351C8.77134 30.5984 7.01468 31.4201 5.08801 32.1001C3.21801 32.7801 1.54634 33.1201 0.0730081 33.1201V22.4951C1.09301 22.4951 2.31134 22.1834 3.72801 21.5601C5.20134 20.8801 6.64634 20.0867 8.06301 19.1801C9.53634 18.2734 10.783 17.3951 11.803 16.5451C12.8797 15.6384 13.5597 14.9301 13.843 14.4201H25.488V52.6701H36.283ZM68.17 23.7701H40.715V13.4001H86.105L56.185 73.7501H43.265L68.17 23.7701ZM121.596 62.9551L108.591 43.7451L102.556 49.6951V62.9551H91.1664V0.905077H102.556V38.4751L120.491 18.5001H132.561L115.986 37.3701L133.751 62.9551H121.596Z" fill="#5CBE3A"/>
</svg>
