<svg width="146" height="74" viewBox="0 0 146 74" fill="none" xmlns="http://www.w3.org/2000/svg">
<path d="M28.1678 23.7701H0.712764V13.4001H46.1028L16.1828 73.7501H3.26276L28.1678 23.7701ZM94.0042 38.0501C94.0042 43.0367 93.0409 47.4851 91.1142 51.3951C89.2443 55.2484 86.6376 58.2801 83.2942 60.4901C80.0076 62.7001 76.2676 63.8051 72.0742 63.8051C67.8809 63.8051 64.1126 62.7001 60.7692 60.4901C57.4826 58.2801 54.8759 55.2484 52.9492 51.3951C51.0792 47.4851 50.1442 43.0367 50.1442 38.0501C50.1442 33.0634 51.0792 28.6434 52.9492 24.7901C54.8759 20.8801 57.4826 17.8201 60.7692 15.6101C64.1126 13.3434 67.8809 12.2101 72.0742 12.2101C76.2676 12.2101 80.0076 13.3434 83.2942 15.6101C86.6376 17.8201 89.2443 20.8801 91.1142 24.7901C93.0409 28.6434 94.0042 33.0634 94.0042 38.0501ZM82.5292 38.0501C82.5292 33.5167 81.5376 29.8334 79.5542 27.0001C77.6276 24.1101 75.1343 22.6651 72.0742 22.6651C68.9009 22.6651 66.3509 24.1101 64.4242 27.0001C62.4976 29.8334 61.5342 33.5167 61.5342 38.0501C61.5342 42.5834 62.4976 46.2667 64.4242 49.1001C66.3509 51.9334 68.9009 53.3501 72.0742 53.3501C75.1343 53.3501 77.6276 51.9334 79.5542 49.1001C81.5376 46.2667 82.5292 42.5834 82.5292 38.0501ZM133.806 62.9551L120.801 43.7451L114.766 49.6951V62.9551H103.376V0.905077H114.766V38.4751L132.701 18.5001H144.771L128.196 37.3701L145.961 62.9551H133.806Z" fill="#5CBE3A"/>
</svg>
