<svg width="388" height="40" viewBox="0 0 388 40" fill="none" xmlns="http://www.w3.org/2000/svg">
<path opacity="0.7" d="M1.87676 3.27724V12.5732H0.756764V1.21324H1.68476L9.14076 10.6852V1.22924H10.2608V12.5732H9.22076L1.87676 3.27724ZM16.3191 12.7332C15.5191 12.7332 14.8045 12.5359 14.1751 12.1412C13.5565 11.7466 13.0711 11.2239 12.7191 10.5732C12.3671 9.91191 12.1911 9.19724 12.1911 8.42924C12.1911 7.65058 12.3671 6.93591 12.7191 6.28524C13.0818 5.62391 13.5725 5.09591 14.1911 4.70124C14.8205 4.29591 15.5298 4.09324 16.3191 4.09324C17.1191 4.09324 17.8285 4.29591 18.4471 4.70124C19.0765 5.09591 19.5671 5.62391 19.9191 6.28524C20.2818 6.93591 20.4631 7.65058 20.4631 8.42924C20.4631 9.19724 20.2871 9.91191 19.9351 10.5732C19.5831 11.2239 19.0925 11.7466 18.4631 12.1412C17.8445 12.5359 17.1298 12.7332 16.3191 12.7332ZM13.2951 8.44524C13.2951 9.06391 13.4285 9.62924 13.6951 10.1412C13.9725 10.6426 14.3405 11.0426 14.7991 11.3412C15.2578 11.6292 15.7645 11.7732 16.3191 11.7732C16.8738 11.7732 17.3805 11.6239 17.8391 11.3252C18.2978 11.0266 18.6658 10.6212 18.9431 10.1092C19.2205 9.59724 19.3591 9.03191 19.3591 8.41324C19.3591 7.79458 19.2205 7.22924 18.9431 6.71724C18.6658 6.20524 18.2978 5.79991 17.8391 5.50124C17.3805 5.20258 16.8738 5.05324 16.3191 5.05324C15.7751 5.05324 15.2738 5.20791 14.8151 5.51724C14.3565 5.81591 13.9885 6.22124 13.7111 6.73324C13.4338 7.24524 13.2951 7.81591 13.2951 8.44524ZM32.4975 4.23724H33.5695L29.9855 12.5732H29.0415L27.2975 8.42924L25.5695 12.5732H24.6255L21.0415 4.23724H22.0975L25.1375 11.4532L26.6735 7.69324L25.2655 4.25324H26.2415L27.2975 6.95724L28.3695 4.25324H29.3295L27.9375 7.69324L29.4735 11.4532L32.4975 4.23724ZM42.6421 12.1732C42.5141 12.2266 42.2795 12.3226 41.9381 12.4612C41.5968 12.5999 41.2021 12.6692 40.7541 12.6692C40.2848 12.6692 39.8741 12.5359 39.5221 12.2692C39.1701 12.0026 38.9941 11.6026 38.9941 11.0692V5.10124H37.8421V4.23724H38.9941V1.42124H40.0821V4.23724H42.0021V5.10124H40.0821V10.7652C40.1035 11.0746 40.2101 11.3039 40.4021 11.4532C40.6048 11.5919 40.8341 11.6612 41.0901 11.6612C41.3888 11.6612 41.6555 11.6132 41.8901 11.5172C42.1355 11.4106 42.2901 11.3359 42.3541 11.2932L42.6421 12.1732ZM51.0095 12.5732H49.9215V7.91724C49.9215 6.02924 49.2815 5.08524 48.0015 5.08524C47.5855 5.08524 47.1802 5.19191 46.7855 5.40524C46.3908 5.60791 46.0388 5.89058 45.7295 6.25324C45.4308 6.60524 45.2175 7.01058 45.0895 7.46924V12.5732H44.0015V0.893242H45.0895V6.12524C45.4202 5.50658 45.8788 5.01591 46.4655 4.65324C47.0628 4.27991 47.6975 4.09324 48.3695 4.09324C49.0095 4.09324 49.5215 4.24791 49.9055 4.55724C50.2895 4.85591 50.5668 5.27724 50.7375 5.82124C50.9188 6.35458 51.0095 6.97858 51.0095 7.69324V12.5732ZM52.6576 10.1732C52.6576 9.66124 52.807 9.21858 53.1056 8.84524C53.4043 8.46124 53.815 8.16258 54.3376 7.94924C54.871 7.73591 55.4843 7.62924 56.1776 7.62924C56.583 7.62924 57.0043 7.66658 57.4416 7.74124C57.879 7.80524 58.2683 7.89591 58.6096 8.01324V7.30924C58.6096 6.60524 58.4016 6.04524 57.9856 5.62924C57.5696 5.21324 56.9936 5.00524 56.2576 5.00524C55.8203 5.00524 55.383 5.09058 54.9456 5.26124C54.5083 5.42124 54.055 5.66124 53.5856 5.98124L53.1696 5.21324C53.7136 4.83991 54.247 4.56258 54.7696 4.38124C55.2923 4.18924 55.8256 4.09324 56.3696 4.09324C57.3936 4.09324 58.2043 4.38658 58.8016 4.97324C59.399 5.55991 59.6976 6.37058 59.6976 7.40524V11.2612C59.6976 11.5492 59.831 11.6986 60.0976 11.7092V12.5732C59.863 12.6052 59.6976 12.6159 59.6016 12.6052C59.335 12.5946 59.1323 12.5092 58.9936 12.3492C58.855 12.1892 58.7803 12.0186 58.7696 11.8372L58.7536 11.2292C58.3803 11.7092 57.895 12.0826 57.2976 12.3492C56.7003 12.6052 56.0923 12.7332 55.4736 12.7332C54.9296 12.7332 54.4443 12.6212 54.0176 12.3972C53.591 12.1626 53.255 11.8532 53.0096 11.4692C52.775 11.0746 52.6576 10.6426 52.6576 10.1732ZM58.2416 10.8132C58.487 10.5252 58.6096 10.2586 58.6096 10.0132V8.79724C57.8736 8.50924 57.1056 8.36524 56.3056 8.36524C55.527 8.36524 54.8976 8.51991 54.4176 8.82924C53.9376 9.13858 53.6976 9.55991 53.6976 10.0932C53.6976 10.5519 53.8736 10.9679 54.2256 11.3412C54.5883 11.7146 55.0896 11.9012 55.7296 11.9012C56.2523 11.9012 56.7376 11.7999 57.1856 11.5972C57.6443 11.3946 57.9963 11.1332 58.2416 10.8132ZM65.9859 12.1732C65.8579 12.2266 65.6232 12.3226 65.2819 12.4612C64.9406 12.5999 64.5459 12.6692 64.0979 12.6692C63.6286 12.6692 63.2179 12.5359 62.8659 12.2692C62.5139 12.0026 62.3379 11.6026 62.3379 11.0692V5.10124H61.1859V4.23724H62.3379V1.42124H63.4259V4.23724H65.3459V5.10124H63.4259V10.7652C63.4472 11.0746 63.5539 11.3039 63.7459 11.4532C63.9486 11.5919 64.1779 11.6612 64.4339 11.6612C64.7326 11.6612 64.9992 11.6132 65.2339 11.5172C65.4792 11.4106 65.6339 11.3359 65.6979 11.2932L65.9859 12.1732ZM71.4659 15.1332C71.6152 15.1439 71.7592 15.1492 71.8979 15.1492C72.0366 15.1599 72.1379 15.1546 72.2019 15.1332C72.3299 15.1226 72.4472 15.0479 72.5539 14.9092C72.6712 14.7812 72.8099 14.5359 72.9699 14.1732C73.1406 13.8212 73.3699 13.2879 73.6579 12.5732L70.0259 4.23724H71.1779L74.2339 11.4532L77.0499 4.23724H78.1379L73.8179 14.9892C73.7006 15.2986 73.5032 15.5652 73.2259 15.7892C72.9486 16.0132 72.5806 16.1306 72.1219 16.1412C72.0259 16.1519 71.9246 16.1519 71.8179 16.1412C71.7112 16.1412 71.5939 16.1306 71.4659 16.1092V15.1332ZM82.9129 12.7332C82.1129 12.7332 81.3982 12.5359 80.7689 12.1412C80.1502 11.7466 79.6649 11.2239 79.3129 10.5732C78.9609 9.91191 78.7849 9.19724 78.7849 8.42924C78.7849 7.65058 78.9609 6.93591 79.3129 6.28524C79.6756 5.62391 80.1662 5.09591 80.7849 4.70124C81.4142 4.29591 82.1236 4.09324 82.9129 4.09324C83.7129 4.09324 84.4222 4.29591 85.0409 4.70124C85.6702 5.09591 86.1609 5.62391 86.5129 6.28524C86.8756 6.93591 87.0569 7.65058 87.0569 8.42924C87.0569 9.19724 86.8809 9.91191 86.5289 10.5732C86.1769 11.2239 85.6862 11.7466 85.0569 12.1412C84.4382 12.5359 83.7236 12.7332 82.9129 12.7332ZM79.8889 8.44524C79.8889 9.06391 80.0222 9.62924 80.2889 10.1412C80.5662 10.6426 80.9342 11.0426 81.3929 11.3412C81.8516 11.6292 82.3582 11.7732 82.9129 11.7732C83.4676 11.7732 83.9742 11.6239 84.4329 11.3252C84.8916 11.0266 85.2596 10.6212 85.5369 10.1092C85.8142 9.59724 85.9529 9.03191 85.9529 8.41324C85.9529 7.79458 85.8142 7.22924 85.5369 6.71724C85.2596 6.20524 84.8916 5.79991 84.4329 5.50124C83.9742 5.20258 83.4676 5.05324 82.9129 5.05324C82.3689 5.05324 81.8676 5.20791 81.4089 5.51724C80.9502 5.81591 80.5822 6.22124 80.3049 6.73324C80.0276 7.24524 79.8889 7.81591 79.8889 8.44524ZM88.7965 9.13324V4.23724H89.8845V8.94124C89.8845 10.8292 90.5298 11.7732 91.8205 11.7732C92.4605 11.7732 93.0578 11.5652 93.6125 11.1492C94.1778 10.7332 94.5832 10.1786 94.8285 9.48524V4.23724H95.9165V11.2612C95.9165 11.5492 96.0445 11.6986 96.3005 11.7092V12.5732C96.1725 12.5946 96.0712 12.6052 95.9965 12.6052C95.9325 12.6052 95.8632 12.6052 95.7885 12.6052C95.5645 12.5839 95.3725 12.4986 95.2125 12.3492C95.0632 12.1999 94.9885 12.0186 94.9885 11.8052L94.9565 10.6852C94.5938 11.3359 94.0978 11.8426 93.4685 12.2052C92.8498 12.5572 92.1778 12.7332 91.4525 12.7332C89.6818 12.7332 88.7965 11.5332 88.7965 9.13324ZM109.463 12.5732H108.375V7.91724C108.375 6.02924 107.735 5.08524 106.455 5.08524C106.039 5.08524 105.633 5.19191 105.239 5.40524C104.844 5.60791 104.492 5.89058 104.183 6.25324C103.884 6.60524 103.671 7.01058 103.543 7.46924V12.5732H102.455V0.893242H103.543V6.12524C103.873 5.50658 104.332 5.01591 104.919 4.65324C105.516 4.27991 106.151 4.09324 106.823 4.09324C107.463 4.09324 107.975 4.24791 108.359 4.55724C108.743 4.85591 109.02 5.27724 109.191 5.82124C109.372 6.35458 109.463 6.97858 109.463 7.69324V12.5732ZM111.111 10.1732C111.111 9.66124 111.26 9.21858 111.559 8.84524C111.857 8.46124 112.268 8.16258 112.791 7.94924C113.324 7.73591 113.937 7.62924 114.631 7.62924C115.036 7.62924 115.457 7.66658 115.895 7.74124C116.332 7.80524 116.721 7.89591 117.063 8.01324V7.30924C117.063 6.60524 116.855 6.04524 116.439 5.62924C116.023 5.21324 115.447 5.00524 114.711 5.00524C114.273 5.00524 113.836 5.09058 113.399 5.26124C112.961 5.42124 112.508 5.66124 112.039 5.98124L111.623 5.21324C112.167 4.83991 112.7 4.56258 113.223 4.38124C113.745 4.18924 114.279 4.09324 114.823 4.09324C115.847 4.09324 116.657 4.38658 117.255 4.97324C117.852 5.55991 118.151 6.37058 118.151 7.40524V11.2612C118.151 11.5492 118.284 11.6986 118.551 11.7092V12.5732C118.316 12.6052 118.151 12.6159 118.055 12.6052C117.788 12.5946 117.585 12.5092 117.447 12.3492C117.308 12.1892 117.233 12.0186 117.223 11.8372L117.207 11.2292C116.833 11.7092 116.348 12.0826 115.751 12.3492C115.153 12.6052 114.545 12.7332 113.927 12.7332C113.383 12.7332 112.897 12.6212 112.471 12.3972C112.044 12.1626 111.708 11.8532 111.463 11.4692C111.228 11.0746 111.111 10.6426 111.111 10.1732ZM116.695 10.8132C116.94 10.5252 117.063 10.2586 117.063 10.0132V8.79724C116.327 8.50924 115.559 8.36524 114.759 8.36524C113.98 8.36524 113.351 8.51991 112.871 8.82924C112.391 9.13858 112.151 9.55991 112.151 10.0932C112.151 10.5519 112.327 10.9679 112.679 11.3412C113.041 11.7146 113.543 11.9012 114.183 11.9012C114.705 11.9012 115.191 11.7999 115.639 11.5972C116.097 11.3946 116.449 11.1332 116.695 10.8132ZM122.732 12.5732L119.356 4.23724H120.492L123.34 11.4852L126.204 4.23724H127.276L123.9 12.5732H122.732ZM132.102 12.7332C131.302 12.7332 130.587 12.5359 129.958 12.1412C129.328 11.7466 128.832 11.2186 128.47 10.5572C128.107 9.89591 127.926 9.17058 127.926 8.38124C127.926 7.60258 128.102 6.88791 128.454 6.23724C128.816 5.58658 129.312 5.06924 129.942 4.68524C130.571 4.29058 131.286 4.09324 132.086 4.09324C132.907 4.09324 133.627 4.29058 134.246 4.68524C134.864 5.07991 135.344 5.60258 135.686 6.25324C136.038 6.89324 136.214 7.59724 136.214 8.36524C136.214 8.53591 136.208 8.67991 136.198 8.79724H129.062C129.115 9.39458 129.286 9.92791 129.574 10.3972C129.862 10.8559 130.23 11.2239 130.678 11.5012C131.126 11.7679 131.616 11.9012 132.15 11.9012C132.694 11.9012 133.206 11.7626 133.686 11.4852C134.166 11.2079 134.507 10.8452 134.71 10.3972L135.654 10.6532C135.483 11.0586 135.216 11.4212 134.854 11.7412C134.502 12.0506 134.091 12.2959 133.622 12.4772C133.152 12.6479 132.646 12.7332 132.102 12.7332ZM129.03 8.01324H135.19C135.147 7.41591 134.982 6.88791 134.694 6.42924C134.406 5.95991 134.038 5.59724 133.59 5.34124C133.142 5.07458 132.646 4.94124 132.102 4.94124C131.558 4.94124 131.062 5.07458 130.614 5.34124C130.166 5.59724 129.798 5.95991 129.51 6.42924C129.232 6.88791 129.072 7.41591 129.03 8.01324ZM141.298 10.1732C141.298 9.66124 141.448 9.21858 141.746 8.84524C142.045 8.46124 142.456 8.16258 142.978 7.94924C143.512 7.73591 144.125 7.62924 144.818 7.62924C145.224 7.62924 145.645 7.66658 146.082 7.74124C146.52 7.80524 146.909 7.89591 147.25 8.01324V7.30924C147.25 6.60524 147.042 6.04524 146.626 5.62924C146.21 5.21324 145.634 5.00524 144.898 5.00524C144.461 5.00524 144.024 5.09058 143.586 5.26124C143.149 5.42124 142.696 5.66124 142.226 5.98124L141.81 5.21324C142.354 4.83991 142.888 4.56258 143.41 4.38124C143.933 4.18924 144.466 4.09324 145.01 4.09324C146.034 4.09324 146.845 4.38658 147.442 4.97324C148.04 5.55991 148.338 6.37058 148.338 7.40524V11.2612C148.338 11.5492 148.472 11.6986 148.738 11.7092V12.5732C148.504 12.6052 148.338 12.6159 148.242 12.6052C147.976 12.5946 147.773 12.5092 147.634 12.3492C147.496 12.1892 147.421 12.0186 147.41 11.8372L147.394 11.2292C147.021 11.7092 146.536 12.0826 145.938 12.3492C145.341 12.6052 144.733 12.7332 144.114 12.7332C143.57 12.7332 143.085 12.6212 142.658 12.3972C142.232 12.1626 141.896 11.8532 141.65 11.4692C141.416 11.0746 141.298 10.6426 141.298 10.1732ZM146.882 10.8132C147.128 10.5252 147.25 10.2586 147.25 10.0132V8.79724C146.514 8.50924 145.746 8.36524 144.946 8.36524C144.168 8.36524 143.538 8.51991 143.058 8.82924C142.578 9.13858 142.338 9.55991 142.338 10.0932C142.338 10.5519 142.514 10.9679 142.866 11.3412C143.229 11.7146 143.73 11.9012 144.37 11.9012C144.893 11.9012 145.378 11.7999 145.826 11.5972C146.285 11.3946 146.637 11.1332 146.882 10.8132ZM158.927 5.19724C158.202 5.21858 157.562 5.42124 157.007 5.80524C156.463 6.18924 156.079 6.71724 155.855 7.38924V12.5732H154.767V4.23724H155.791V6.23724C156.079 5.65058 156.458 5.17591 156.927 4.81324C157.407 4.45057 157.914 4.24791 158.447 4.20524C158.554 4.19457 158.644 4.18924 158.719 4.18924C158.794 4.18924 158.863 4.19457 158.927 4.20524V5.19724ZM163.727 12.7332C162.927 12.7332 162.212 12.5359 161.583 12.1412C160.953 11.7466 160.457 11.2186 160.095 10.5572C159.732 9.89591 159.551 9.17058 159.551 8.38124C159.551 7.60258 159.727 6.88791 160.079 6.23724C160.441 5.58658 160.937 5.06924 161.567 4.68524C162.196 4.29058 162.911 4.09324 163.711 4.09324C164.532 4.09324 165.252 4.29058 165.871 4.68524C166.489 5.07991 166.969 5.60258 167.311 6.25324C167.663 6.89324 167.839 7.59724 167.839 8.36524C167.839 8.53591 167.833 8.67991 167.823 8.79724H160.687C160.74 9.39458 160.911 9.92791 161.199 10.3972C161.487 10.8559 161.855 11.2239 162.303 11.5012C162.751 11.7679 163.241 11.9012 163.775 11.9012C164.319 11.9012 164.831 11.7626 165.311 11.4852C165.791 11.2079 166.132 10.8452 166.335 10.3972L167.279 10.6532C167.108 11.0586 166.841 11.4212 166.479 11.7412C166.127 12.0506 165.716 12.2959 165.247 12.4772C164.777 12.6479 164.271 12.7332 163.727 12.7332ZM160.655 8.01324H166.815C166.772 7.41591 166.607 6.88791 166.319 6.42924C166.031 5.95991 165.663 5.59724 165.215 5.34124C164.767 5.07458 164.271 4.94124 163.727 4.94124C163.183 4.94124 162.687 5.07458 162.239 5.34124C161.791 5.59724 161.423 5.95991 161.135 6.42924C160.857 6.88791 160.697 7.41591 160.655 8.01324ZM168.845 10.1732C168.845 9.66124 168.994 9.21858 169.293 8.84524C169.592 8.46124 170.002 8.16258 170.525 7.94924C171.058 7.73591 171.672 7.62924 172.365 7.62924C172.77 7.62924 173.192 7.66658 173.629 7.74124C174.066 7.80524 174.456 7.89591 174.797 8.01324V7.30924C174.797 6.60524 174.589 6.04524 174.173 5.62924C173.757 5.21324 173.181 5.00524 172.445 5.00524C172.008 5.00524 171.57 5.09058 171.133 5.26124C170.696 5.42124 170.242 5.66124 169.773 5.98124L169.357 5.21324C169.901 4.83991 170.434 4.56258 170.957 4.38124C171.48 4.18924 172.013 4.09324 172.557 4.09324C173.581 4.09324 174.392 4.38658 174.989 4.97324C175.586 5.55991 175.885 6.37058 175.885 7.40524V11.2612C175.885 11.5492 176.018 11.6986 176.285 11.7092V12.5732C176.05 12.6052 175.885 12.6159 175.789 12.6052C175.522 12.5946 175.32 12.5092 175.181 12.3492C175.042 12.1892 174.968 12.0186 174.957 11.8372L174.941 11.2292C174.568 11.7092 174.082 12.0826 173.485 12.3492C172.888 12.6052 172.28 12.7332 171.661 12.7332C171.117 12.7332 170.632 12.6212 170.205 12.3972C169.778 12.1626 169.442 11.8532 169.197 11.4692C168.962 11.0746 168.845 10.6426 168.845 10.1732ZM174.429 10.8132C174.674 10.5252 174.797 10.2586 174.797 10.0132V8.79724C174.061 8.50924 173.293 8.36524 172.493 8.36524C171.714 8.36524 171.085 8.51991 170.605 8.82924C170.125 9.13858 169.885 9.55991 169.885 10.0932C169.885 10.5519 170.061 10.9679 170.413 11.3412C170.776 11.7146 171.277 11.9012 171.917 11.9012C172.44 11.9012 172.925 11.7999 173.373 11.5972C173.832 11.3946 174.184 11.1332 174.429 10.8132ZM177.676 8.42924C177.676 7.63991 177.836 6.91991 178.156 6.26924C178.487 5.60791 178.94 5.07991 179.516 4.68524C180.092 4.29058 180.748 4.09324 181.484 4.09324C182.177 4.09324 182.796 4.27991 183.34 4.65324C183.895 5.01591 184.327 5.45858 184.636 5.98124V0.893242H185.724V11.2612C185.724 11.5492 185.852 11.6986 186.108 11.7092V12.5732C185.895 12.6052 185.729 12.6159 185.612 12.6052C185.377 12.5946 185.175 12.5092 185.004 12.3492C184.844 12.1786 184.764 11.9866 184.764 11.7732V10.9572C184.433 11.5012 183.985 11.9332 183.42 12.2532C182.855 12.5732 182.268 12.7332 181.66 12.7332C181.084 12.7332 180.551 12.6159 180.06 12.3812C179.569 12.1466 179.143 11.8266 178.78 11.4212C178.428 11.0159 178.156 10.5572 177.964 10.0452C177.772 9.52258 177.676 8.98391 177.676 8.42924ZM184.636 9.70924V7.13324C184.497 6.74924 184.273 6.40258 183.964 6.09324C183.655 5.77324 183.303 5.52258 182.908 5.34124C182.524 5.14924 182.14 5.05324 181.756 5.05324C181.159 5.05324 180.636 5.21858 180.188 5.54924C179.751 5.86924 179.409 6.29058 179.164 6.81324C178.919 7.32524 178.796 7.86391 178.796 8.42924C178.796 9.02658 178.929 9.58124 179.196 10.0932C179.473 10.6052 179.847 11.0159 180.316 11.3252C180.785 11.6239 181.313 11.7732 181.9 11.7732C182.263 11.7732 182.641 11.6826 183.036 11.5012C183.441 11.3092 183.793 11.0586 184.092 10.7492C184.401 10.4399 184.583 10.0932 184.636 9.70924ZM188.669 15.1332C188.818 15.1439 188.962 15.1492 189.101 15.1492C189.24 15.1599 189.341 15.1546 189.405 15.1332C189.533 15.1226 189.65 15.0479 189.757 14.9092C189.874 14.7812 190.013 14.5359 190.173 14.1732C190.344 13.8212 190.573 13.2879 190.861 12.5732L187.229 4.23724H188.381L191.437 11.4532L194.253 4.23724H195.341L191.021 14.9892C190.904 15.2986 190.706 15.5652 190.429 15.7892C190.152 16.0132 189.784 16.1306 189.325 16.1412C189.229 16.1519 189.128 16.1519 189.021 16.1412C188.914 16.1412 188.797 16.1306 188.669 16.1092V15.1332ZM203.238 12.7332C202.555 12.7332 201.92 12.6212 201.334 12.3972C200.758 12.1626 200.251 11.8212 199.814 11.3732L200.262 10.6052C200.731 11.0426 201.2 11.3626 201.67 11.5652C202.15 11.7572 202.656 11.8532 203.19 11.8532C203.83 11.8532 204.352 11.7252 204.758 11.4692C205.174 11.2026 205.382 10.8239 205.382 10.3332C205.382 10.0026 205.28 9.75191 205.078 9.58124C204.886 9.39991 204.603 9.25591 204.23 9.14924C203.867 9.04258 203.43 8.91991 202.918 8.78124C202.342 8.62124 201.856 8.45591 201.462 8.28524C201.078 8.10391 200.784 7.87991 200.582 7.61324C200.39 7.33591 200.294 6.97858 200.294 6.54124C200.294 6.00791 200.427 5.55991 200.694 5.19724C200.971 4.83458 201.344 4.56258 201.814 4.38124C202.294 4.18924 202.827 4.09324 203.414 4.09324C204.054 4.09324 204.619 4.19457 205.11 4.39724C205.6 4.59991 206 4.88258 206.31 5.24524L205.782 5.98124C205.494 5.63991 205.136 5.38924 204.71 5.22924C204.294 5.05858 203.84 4.97324 203.35 4.97324C203.008 4.97324 202.683 5.02124 202.374 5.11724C202.064 5.20258 201.808 5.35191 201.606 5.56524C201.414 5.76791 201.318 6.05058 201.318 6.41324C201.318 6.86124 201.483 7.17058 201.814 7.34124C202.144 7.51191 202.646 7.69324 203.318 7.88524C203.947 8.05591 204.496 8.22658 204.966 8.39724C205.435 8.56791 205.798 8.79724 206.054 9.08524C206.31 9.36258 206.438 9.75191 206.438 10.2532C206.438 11.0319 206.144 11.6399 205.558 12.0772C204.971 12.5146 204.198 12.7332 203.238 12.7332ZM212.236 12.1732C212.108 12.2266 211.873 12.3226 211.532 12.4612C211.191 12.5999 210.796 12.6692 210.348 12.6692C209.879 12.6692 209.468 12.5359 209.116 12.2692C208.764 12.0026 208.588 11.6026 208.588 11.0692V5.10124H207.436V4.23724H208.588V1.42124H209.676V4.23724H211.596V5.10124H209.676V10.7652C209.697 11.0746 209.804 11.3039 209.996 11.4532C210.199 11.5919 210.428 11.6612 210.684 11.6612C210.983 11.6612 211.249 11.6132 211.484 11.5172C211.729 11.4106 211.884 11.3359 211.948 11.2932L212.236 12.1732ZM217.755 5.19724C217.03 5.21858 216.39 5.42124 215.835 5.80524C215.291 6.18924 214.907 6.71724 214.683 7.38924V12.5732H213.595V4.23724H214.619V6.23724C214.907 5.65058 215.286 5.17591 215.755 4.81324C216.235 4.45057 216.742 4.24791 217.275 4.20524C217.382 4.19457 217.473 4.18924 217.547 4.18924C217.622 4.18924 217.691 4.19457 217.755 4.20524V5.19724ZM218.501 10.1732C218.501 9.66124 218.651 9.21858 218.949 8.84524C219.248 8.46124 219.659 8.16258 220.181 7.94924C220.715 7.73591 221.328 7.62924 222.021 7.62924C222.427 7.62924 222.848 7.66658 223.285 7.74124C223.723 7.80524 224.112 7.89591 224.453 8.01324V7.30924C224.453 6.60524 224.245 6.04524 223.829 5.62924C223.413 5.21324 222.837 5.00524 222.101 5.00524C221.664 5.00524 221.227 5.09058 220.789 5.26124C220.352 5.42124 219.899 5.66124 219.429 5.98124L219.013 5.21324C219.557 4.83991 220.091 4.56258 220.613 4.38124C221.136 4.18924 221.669 4.09324 222.213 4.09324C223.237 4.09324 224.048 4.38658 224.645 4.97324C225.243 5.55991 225.541 6.37058 225.541 7.40524V11.2612C225.541 11.5492 225.675 11.6986 225.941 11.7092V12.5732C225.707 12.6052 225.541 12.6159 225.445 12.6052C225.179 12.5946 224.976 12.5092 224.837 12.3492C224.699 12.1892 224.624 12.0186 224.613 11.8372L224.597 11.2292C224.224 11.7092 223.739 12.0826 223.141 12.3492C222.544 12.6052 221.936 12.7332 221.317 12.7332C220.773 12.7332 220.288 12.6212 219.861 12.3972C219.435 12.1626 219.099 11.8532 218.853 11.4692C218.619 11.0746 218.501 10.6426 218.501 10.1732ZM224.085 10.8132C224.331 10.5252 224.453 10.2586 224.453 10.0132V8.79724C223.717 8.50924 222.949 8.36524 222.149 8.36524C221.371 8.36524 220.741 8.51991 220.261 8.82924C219.781 9.13858 219.541 9.55991 219.541 10.0932C219.541 10.5519 219.717 10.9679 220.069 11.3412C220.432 11.7146 220.933 11.9012 221.573 11.9012C222.096 11.9012 222.581 11.7999 223.029 11.5972C223.488 11.3946 223.84 11.1332 224.085 10.8132ZM231.83 12.1732C231.702 12.2266 231.467 12.3226 231.126 12.4612C230.784 12.5999 230.39 12.6692 229.942 12.6692C229.472 12.6692 229.062 12.5359 228.71 12.2692C228.358 12.0026 228.182 11.6026 228.182 11.0692V5.10124H227.03V4.23724H228.182V1.42124H229.27V4.23724H231.19V5.10124H229.27V10.7652C229.291 11.0746 229.398 11.3039 229.59 11.4532C229.792 11.5919 230.022 11.6612 230.278 11.6612C230.576 11.6612 230.843 11.6132 231.078 11.5172C231.323 11.4106 231.478 11.3359 231.542 11.2932L231.83 12.1732ZM236.648 12.7332C235.848 12.7332 235.134 12.5359 234.504 12.1412C233.875 11.7466 233.379 11.2186 233.016 10.5572C232.654 9.89591 232.472 9.17058 232.472 8.38124C232.472 7.60258 232.648 6.88791 233 6.23724C233.363 5.58658 233.859 5.06924 234.488 4.68524C235.118 4.29058 235.832 4.09324 236.632 4.09324C237.454 4.09324 238.174 4.29058 238.792 4.68524C239.411 5.07991 239.891 5.60258 240.232 6.25324C240.584 6.89324 240.76 7.59724 240.76 8.36524C240.76 8.53591 240.755 8.67991 240.744 8.79724H233.608C233.662 9.39458 233.832 9.92791 234.12 10.3972C234.408 10.8559 234.776 11.2239 235.224 11.5012C235.672 11.7679 236.163 11.9012 236.696 11.9012C237.24 11.9012 237.752 11.7626 238.232 11.4852C238.712 11.2079 239.054 10.8452 239.256 10.3972L240.2 10.6532C240.03 11.0586 239.763 11.4212 239.4 11.7412C239.048 12.0506 238.638 12.2959 238.168 12.4772C237.699 12.6479 237.192 12.7332 236.648 12.7332ZM233.576 8.01324H239.736C239.694 7.41591 239.528 6.88791 239.24 6.42924C238.952 5.95991 238.584 5.59724 238.136 5.34124C237.688 5.07458 237.192 4.94124 236.648 4.94124C236.104 4.94124 235.608 5.07458 235.16 5.34124C234.712 5.59724 234.344 5.95991 234.056 6.42924C233.779 6.88791 233.619 7.41591 233.576 8.01324ZM245.783 12.6852C245.207 12.6852 244.679 12.5679 244.199 12.3332C243.73 12.0986 243.319 11.7839 242.967 11.3892C242.626 10.9839 242.359 10.5252 242.167 10.0132C241.975 9.50124 241.879 8.97324 241.879 8.42924C241.879 7.65058 242.044 6.93591 242.375 6.28524C242.706 5.62391 243.159 5.09591 243.735 4.70124C244.322 4.29591 244.994 4.09324 245.751 4.09324C246.466 4.09324 247.084 4.27458 247.607 4.63724C248.14 4.99991 248.588 5.44791 248.951 5.98124V4.23724H249.927V12.6052C249.927 13.3839 249.74 14.0346 249.367 14.5572C248.994 15.0799 248.498 15.4746 247.879 15.7412C247.26 16.0079 246.583 16.1412 245.847 16.1412C244.887 16.1412 244.114 15.9706 243.527 15.6292C242.951 15.2879 242.476 14.8292 242.103 14.2532L242.775 13.7252C243.106 14.2479 243.543 14.6372 244.087 14.8932C244.642 15.1492 245.228 15.2772 245.847 15.2772C246.391 15.2772 246.887 15.1759 247.335 14.9732C247.794 14.7812 248.156 14.4879 248.423 14.0932C248.7 13.6986 248.839 13.2026 248.839 12.6052V10.9572C248.519 11.4799 248.082 11.9012 247.527 12.2212C246.972 12.5306 246.391 12.6852 245.783 12.6852ZM246.087 11.7732C246.524 11.7732 246.94 11.6719 247.335 11.4692C247.73 11.2666 248.06 11.0106 248.327 10.7012C248.604 10.3812 248.775 10.0506 248.839 9.70924V7.13324C248.679 6.72791 248.45 6.37058 248.151 6.06124C247.852 5.74124 247.511 5.49591 247.127 5.32524C246.743 5.14391 246.354 5.05324 245.959 5.05324C245.34 5.05324 244.807 5.22391 244.359 5.56524C243.922 5.89591 243.58 6.32258 243.335 6.84524C243.1 7.35724 242.983 7.89058 242.983 8.44524C242.983 9.04258 243.122 9.59724 243.399 10.1092C243.676 10.6106 244.05 11.0159 244.519 11.3252C244.988 11.6239 245.511 11.7732 246.087 11.7732ZM252.81 15.1332C252.959 15.1439 253.103 15.1492 253.242 15.1492C253.38 15.1599 253.482 15.1546 253.546 15.1332C253.674 15.1226 253.791 15.0479 253.898 14.9092C254.015 14.7812 254.154 14.5359 254.314 14.1732C254.484 13.8212 254.714 13.2879 255.002 12.5732L251.37 4.23724H252.522L255.578 11.4532L258.394 4.23724H259.482L255.162 14.9892C255.044 15.2986 254.847 15.5652 254.57 15.7892C254.292 16.0132 253.924 16.1306 253.466 16.1412C253.37 16.1519 253.268 16.1519 253.162 16.1412C253.055 16.1412 252.938 16.1306 252.81 16.1092V15.1332ZM268.642 12.1732C268.514 12.2266 268.279 12.3226 267.938 12.4612C267.597 12.5999 267.202 12.6692 266.754 12.6692C266.285 12.6692 265.874 12.5359 265.522 12.2692C265.17 12.0026 264.994 11.6026 264.994 11.0692V5.10124H263.842V4.23724H264.994V1.42124H266.082V4.23724H268.002V5.10124H266.082V10.7652C266.103 11.0746 266.21 11.3039 266.402 11.4532C266.605 11.5919 266.834 11.6612 267.09 11.6612C267.389 11.6612 267.655 11.6132 267.89 11.5172C268.135 11.4106 268.29 11.3359 268.354 11.2932L268.642 12.1732ZM273.413 12.7332C272.613 12.7332 271.898 12.5359 271.269 12.1412C270.65 11.7466 270.165 11.2239 269.813 10.5732C269.461 9.91191 269.285 9.19724 269.285 8.42924C269.285 7.65058 269.461 6.93591 269.813 6.28524C270.176 5.62391 270.666 5.09591 271.285 4.70124C271.914 4.29591 272.624 4.09324 273.413 4.09324C274.213 4.09324 274.922 4.29591 275.541 4.70124C276.17 5.09591 276.661 5.62391 277.013 6.28524C277.376 6.93591 277.557 7.65058 277.557 8.42924C277.557 9.19724 277.381 9.91191 277.029 10.5732C276.677 11.2239 276.186 11.7466 275.557 12.1412C274.938 12.5359 274.224 12.7332 273.413 12.7332ZM270.389 8.44524C270.389 9.06391 270.522 9.62924 270.789 10.1412C271.066 10.6426 271.434 11.0426 271.893 11.3412C272.352 11.6292 272.858 11.7732 273.413 11.7732C273.968 11.7732 274.474 11.6239 274.933 11.3252C275.392 11.0266 275.76 10.6212 276.037 10.1092C276.314 9.59724 276.453 9.03191 276.453 8.41324C276.453 7.79458 276.314 7.22924 276.037 6.71724C275.76 6.20524 275.392 5.79991 274.933 5.50124C274.474 5.20258 273.968 5.05324 273.413 5.05324C272.869 5.05324 272.368 5.20791 271.909 5.51724C271.45 5.81591 271.082 6.22124 270.805 6.73324C270.528 7.24524 270.389 7.81591 270.389 8.44524ZM295.855 12.5732H294.767V7.91724C294.767 6.95724 294.612 6.24791 294.303 5.78924C293.993 5.31991 293.535 5.08524 292.927 5.08524C292.287 5.08524 291.721 5.30924 291.231 5.75724C290.74 6.20524 290.393 6.78124 290.191 7.48524V12.5732H289.103V7.91724C289.103 6.93591 288.948 6.22124 288.639 5.77324C288.34 5.31458 287.887 5.08524 287.279 5.08524C286.649 5.08524 286.084 5.30391 285.583 5.74124C285.092 6.17858 284.745 6.75458 284.543 7.46924V12.5732H283.455V4.23724H284.447V6.12524C284.788 5.48524 285.236 4.98924 285.791 4.63724C286.345 4.27458 286.959 4.09324 287.631 4.09324C288.324 4.09324 288.884 4.29591 289.311 4.70124C289.737 5.09591 289.999 5.60791 290.095 6.23724C290.863 4.80791 291.935 4.09324 293.311 4.09324C294.249 4.09324 294.905 4.42391 295.279 5.08524C295.663 5.73591 295.855 6.60524 295.855 7.69324V12.5732ZM301.71 12.7332C300.91 12.7332 300.195 12.5359 299.566 12.1412C298.947 11.7466 298.462 11.2239 298.11 10.5732C297.758 9.91191 297.582 9.19724 297.582 8.42924C297.582 7.65058 297.758 6.93591 298.11 6.28524C298.472 5.62391 298.963 5.09591 299.582 4.70124C300.211 4.29591 300.92 4.09324 301.71 4.09324C302.51 4.09324 303.219 4.29591 303.838 4.70124C304.467 5.09591 304.958 5.62391 305.31 6.28524C305.672 6.93591 305.854 7.65058 305.854 8.42924C305.854 9.19724 305.678 9.91191 305.326 10.5732C304.974 11.2239 304.483 11.7466 303.854 12.1412C303.235 12.5359 302.52 12.7332 301.71 12.7332ZM298.686 8.44524C298.686 9.06391 298.819 9.62924 299.086 10.1412C299.363 10.6426 299.731 11.0426 300.19 11.3412C300.648 11.6292 301.155 11.7732 301.71 11.7732C302.264 11.7732 302.771 11.6239 303.23 11.3252C303.688 11.0266 304.056 10.6212 304.334 10.1092C304.611 9.59724 304.75 9.03191 304.75 8.41324C304.75 7.79458 304.611 7.22924 304.334 6.71724C304.056 6.20524 303.688 5.79991 303.23 5.50124C302.771 5.20258 302.264 5.05324 301.71 5.05324C301.166 5.05324 300.664 5.20791 300.206 5.51724C299.747 5.81591 299.379 6.22124 299.102 6.73324C298.824 7.24524 298.686 7.81591 298.686 8.44524ZM309.872 12.5732L306.496 4.23724H307.632L310.48 11.4852L313.344 4.23724H314.416L311.04 12.5732H309.872ZM319.242 12.7332C318.442 12.7332 317.727 12.5359 317.098 12.1412C316.469 11.7466 315.973 11.2186 315.61 10.5572C315.247 9.89591 315.066 9.17058 315.066 8.38124C315.066 7.60258 315.242 6.88791 315.594 6.23724C315.957 5.58658 316.453 5.06924 317.082 4.68524C317.711 4.29058 318.426 4.09324 319.226 4.09324C320.047 4.09324 320.767 4.29058 321.386 4.68524C322.005 5.07991 322.485 5.60258 322.826 6.25324C323.178 6.89324 323.354 7.59724 323.354 8.36524C323.354 8.53591 323.349 8.67991 323.338 8.79724H316.202C316.255 9.39458 316.426 9.92791 316.714 10.3972C317.002 10.8559 317.37 11.2239 317.818 11.5012C318.266 11.7679 318.757 11.9012 319.29 11.9012C319.834 11.9012 320.346 11.7626 320.826 11.4852C321.306 11.2079 321.647 10.8452 321.85 10.3972L322.794 10.6532C322.623 11.0586 322.357 11.4212 321.994 11.7412C321.642 12.0506 321.231 12.2959 320.762 12.4772C320.293 12.6479 319.786 12.7332 319.242 12.7332ZM316.17 8.01324H322.33C322.287 7.41591 322.122 6.88791 321.834 6.42924C321.546 5.95991 321.178 5.59724 320.73 5.34124C320.282 5.07458 319.786 4.94124 319.242 4.94124C318.698 4.94124 318.202 5.07458 317.754 5.34124C317.306 5.59724 316.938 5.95991 316.65 6.42924C316.373 6.88791 316.213 7.41591 316.17 8.01324ZM329.511 12.5732V5.10124H328.359V4.23724H329.511V4.01324C329.511 2.98924 329.73 2.18924 330.167 1.61324C330.615 1.02658 331.212 0.733242 331.959 0.733242C332.279 0.733242 332.594 0.781242 332.903 0.877242C333.223 0.973241 333.495 1.10124 333.719 1.26124L333.383 2.04524C333.063 1.79991 332.658 1.67724 332.167 1.67724C331.666 1.67724 331.276 1.87457 330.999 2.26924C330.732 2.66391 330.599 3.23457 330.599 3.98124V4.23724H332.903V5.10124H330.599V12.5732H329.511ZM337.694 12.7332C336.894 12.7332 336.179 12.5359 335.55 12.1412C334.931 11.7466 334.446 11.2239 334.094 10.5732C333.742 9.91191 333.566 9.19724 333.566 8.42924C333.566 7.65058 333.742 6.93591 334.094 6.28524C334.457 5.62391 334.947 5.09591 335.566 4.70124C336.195 4.29591 336.905 4.09324 337.694 4.09324C338.494 4.09324 339.203 4.29591 339.822 4.70124C340.451 5.09591 340.942 5.62391 341.294 6.28524C341.657 6.93591 341.838 7.65058 341.838 8.42924C341.838 9.19724 341.662 9.91191 341.31 10.5732C340.958 11.2239 340.467 11.7466 339.838 12.1412C339.219 12.5359 338.505 12.7332 337.694 12.7332ZM334.67 8.44524C334.67 9.06391 334.803 9.62924 335.07 10.1412C335.347 10.6426 335.715 11.0426 336.174 11.3412C336.633 11.6292 337.139 11.7732 337.694 11.7732C338.249 11.7732 338.755 11.6239 339.214 11.3252C339.673 11.0266 340.041 10.6212 340.318 10.1092C340.595 9.59724 340.734 9.03191 340.734 8.41324C340.734 7.79458 340.595 7.22924 340.318 6.71724C340.041 6.20524 339.673 5.79991 339.214 5.50124C338.755 5.20258 338.249 5.05324 337.694 5.05324C337.15 5.05324 336.649 5.20791 336.19 5.51724C335.731 5.81591 335.363 6.22124 335.086 6.73324C334.809 7.24524 334.67 7.81591 334.67 8.44524ZM347.818 5.19724C347.092 5.21858 346.452 5.42124 345.898 5.80524C345.354 6.18924 344.97 6.71724 344.746 7.38924V12.5732H343.658V4.23724H344.682V6.23724C344.97 5.65058 345.348 5.17591 345.818 4.81324C346.298 4.45057 346.804 4.24791 347.338 4.20524C347.444 4.19457 347.535 4.18924 347.61 4.18924C347.684 4.18924 347.754 4.19457 347.818 4.20524V5.19724ZM359.763 4.23724H360.835L357.251 12.5732H356.307L354.563 8.42924L352.835 12.5732H351.891L348.307 4.23724H349.363L352.403 11.4532L353.939 7.69324L352.531 4.25324H353.507L354.563 6.95724L355.635 4.25324H356.595L355.203 7.69324L356.739 11.4532L359.763 4.23724ZM361.408 10.1732C361.408 9.66124 361.557 9.21858 361.856 8.84524C362.154 8.46124 362.565 8.16258 363.088 7.94924C363.621 7.73591 364.234 7.62924 364.928 7.62924C365.333 7.62924 365.754 7.66658 366.192 7.74124C366.629 7.80524 367.018 7.89591 367.36 8.01324V7.30924C367.36 6.60524 367.152 6.04524 366.736 5.62924C366.32 5.21324 365.744 5.00524 365.008 5.00524C364.57 5.00524 364.133 5.09058 363.696 5.26124C363.258 5.42124 362.805 5.66124 362.336 5.98124L361.92 5.21324C362.464 4.83991 362.997 4.56258 363.52 4.38124C364.042 4.18924 364.576 4.09324 365.12 4.09324C366.144 4.09324 366.954 4.38658 367.552 4.97324C368.149 5.55991 368.448 6.37058 368.448 7.40524V11.2612C368.448 11.5492 368.581 11.6986 368.848 11.7092V12.5732C368.613 12.6052 368.448 12.6159 368.352 12.6052C368.085 12.5946 367.882 12.5092 367.744 12.3492C367.605 12.1892 367.53 12.0186 367.52 11.8372L367.504 11.2292C367.13 11.7092 366.645 12.0826 366.048 12.3492C365.45 12.6052 364.842 12.7332 364.224 12.7332C363.68 12.7332 363.194 12.6212 362.768 12.3972C362.341 12.1626 362.005 11.8532 361.76 11.4692C361.525 11.0746 361.408 10.6426 361.408 10.1732ZM366.992 10.8132C367.237 10.5252 367.36 10.2586 367.36 10.0132V8.79724C366.624 8.50924 365.856 8.36524 365.056 8.36524C364.277 8.36524 363.648 8.51991 363.168 8.82924C362.688 9.13858 362.448 9.55991 362.448 10.0932C362.448 10.5519 362.624 10.9679 362.976 11.3412C363.338 11.7146 363.84 11.9012 364.48 11.9012C365.002 11.9012 365.488 11.7999 365.936 11.5972C366.394 11.3946 366.746 11.1332 366.992 10.8132ZM374.958 5.19724C374.233 5.21858 373.593 5.42124 373.038 5.80524C372.494 6.18924 372.11 6.71724 371.886 7.38924V12.5732H370.798V4.23724H371.822V6.23724C372.11 5.65058 372.489 5.17591 372.958 4.81324C373.438 4.45057 373.945 4.24791 374.478 4.20524C374.585 4.19457 374.676 4.18924 374.75 4.18924C374.825 4.18924 374.894 4.19457 374.958 4.20524V5.19724ZM375.629 8.42924C375.629 7.63991 375.789 6.91991 376.109 6.26924C376.44 5.60791 376.893 5.07991 377.469 4.68524C378.045 4.29058 378.701 4.09324 379.437 4.09324C380.13 4.09324 380.749 4.27991 381.293 4.65324C381.848 5.01591 382.28 5.45858 382.589 5.98124V0.893242H383.677V11.2612C383.677 11.5492 383.805 11.6986 384.061 11.7092V12.5732C383.848 12.6052 383.682 12.6159 383.565 12.6052C383.33 12.5946 383.128 12.5092 382.957 12.3492C382.797 12.1786 382.717 11.9866 382.717 11.7732V10.9572C382.386 11.5012 381.938 11.9332 381.373 12.2532C380.808 12.5732 380.221 12.7332 379.613 12.7332C379.037 12.7332 378.504 12.6159 378.013 12.3812C377.522 12.1466 377.096 11.8266 376.733 11.4212C376.381 11.0159 376.109 10.5572 375.917 10.0452C375.725 9.52258 375.629 8.98391 375.629 8.42924ZM382.589 9.70924V7.13324C382.45 6.74924 382.226 6.40258 381.917 6.09324C381.608 5.77324 381.256 5.52258 380.861 5.34124C380.477 5.14924 380.093 5.05324 379.709 5.05324C379.112 5.05324 378.589 5.21858 378.141 5.54924C377.704 5.86924 377.362 6.29058 377.117 6.81324C376.872 7.32524 376.749 7.86391 376.749 8.42924C376.749 9.02658 376.882 9.58124 377.149 10.0932C377.426 10.6052 377.8 11.0159 378.269 11.3252C378.738 11.6239 379.266 11.7732 379.853 11.7732C380.216 11.7732 380.594 11.6826 380.989 11.5012C381.394 11.3092 381.746 11.0586 382.045 10.7492C382.354 10.4399 382.536 10.0932 382.589 9.70924ZM386.318 13.8692L386.59 12.5252H386.222V11.0052H387.278V12.5252L386.878 13.8692H386.318ZM0.532764 26.4932V24.8932H1.62076V26.4932H0.532764ZM0.532764 36.5732V28.2372H1.62076V36.5732H0.532764ZM8.01714 36.1732C7.88914 36.2266 7.65447 36.3226 7.31314 36.4612C6.97181 36.5999 6.57714 36.6692 6.12914 36.6692C5.65981 36.6692 5.24914 36.5359 4.89714 36.2692C4.54514 36.0026 4.36914 35.6026 4.36914 35.0692V29.1012H3.21714V28.2372H4.36914V25.4212H5.45714V28.2372H7.37714V29.1012H5.45714V34.7652C5.47847 35.0746 5.58514 35.3039 5.77714 35.4532C5.97981 35.5919 6.20914 35.6612 6.46514 35.6612C6.76381 35.6612 7.03047 35.6132 7.26514 35.5172C7.51047 35.4106 7.66514 35.3359 7.72914 35.2932L8.01714 36.1732ZM8.53126 28.2372L8.80326 26.5252H8.41926V24.8932H9.47526V26.5252L9.07526 28.2372H8.53126ZM13.425 36.7332C12.7423 36.7332 12.1077 36.6212 11.521 36.3972C10.945 36.1626 10.4383 35.8212 10.001 35.3732L10.449 34.6052C10.9183 35.0426 11.3877 35.3626 11.857 35.5652C12.337 35.7572 12.8437 35.8532 13.377 35.8532C14.017 35.8532 14.5397 35.7252 14.945 35.4692C15.361 35.2026 15.569 34.8239 15.569 34.3332C15.569 34.0026 15.4677 33.7519 15.265 33.5812C15.073 33.3999 14.7903 33.2559 14.417 33.1492C14.0543 33.0426 13.617 32.9199 13.105 32.7812C12.529 32.6212 12.0437 32.4559 11.649 32.2852C11.265 32.1039 10.9717 31.8799 10.769 31.6132C10.577 31.3359 10.481 30.9786 10.481 30.5412C10.481 30.0079 10.6143 29.5599 10.881 29.1972C11.1583 28.8346 11.5317 28.5626 12.001 28.3812C12.481 28.1892 13.0143 28.0932 13.601 28.0932C14.241 28.0932 14.8063 28.1946 15.297 28.3972C15.7877 28.5999 16.1877 28.8826 16.497 29.2452L15.969 29.9812C15.681 29.6399 15.3237 29.3892 14.897 29.2292C14.481 29.0586 14.0277 28.9732 13.537 28.9732C13.1957 28.9732 12.8703 29.0212 12.561 29.1172C12.2517 29.2026 11.9957 29.3519 11.793 29.5652C11.601 29.7679 11.505 30.0506 11.505 30.4132C11.505 30.8612 11.6703 31.1706 12.001 31.3412C12.3317 31.5119 12.833 31.6932 13.505 31.8852C14.1343 32.0559 14.6837 32.2266 15.153 32.3972C15.6223 32.5679 15.985 32.7972 16.241 33.0852C16.497 33.3626 16.625 33.7519 16.625 34.2532C16.625 35.0319 16.3317 35.6399 15.745 36.0772C15.1583 36.5146 14.385 36.7332 13.425 36.7332ZM26.5015 36.1732C26.3735 36.2266 26.1388 36.3226 25.7975 36.4612C25.4562 36.5999 25.0615 36.6692 24.6135 36.6692C24.1442 36.6692 23.7335 36.5359 23.3815 36.2692C23.0295 36.0026 22.8535 35.6026 22.8535 35.0692V29.1012H21.7015V28.2372H22.8535V25.4212H23.9415V28.2372H25.8615V29.1012H23.9415V34.7652C23.9628 35.0746 24.0695 35.3039 24.2615 35.4532C24.4642 35.5919 24.6935 35.6612 24.9495 35.6612C25.2482 35.6612 25.5148 35.6132 25.7495 35.5172C25.9948 35.4106 26.1495 35.3359 26.2135 35.2932L26.5015 36.1732ZM27.8609 26.4932V24.8932H28.9489V26.4932H27.8609ZM27.8609 36.5732V28.2372H28.9489V36.5732H27.8609ZM43.7453 36.5732H42.6573V31.9172C42.6573 30.9572 42.5026 30.2479 42.1933 29.7892C41.8839 29.3199 41.4253 29.0852 40.8173 29.0852C40.1773 29.0852 39.6119 29.3092 39.1213 29.7572C38.6306 30.2052 38.2839 30.7812 38.0813 31.4852V36.5732H36.9933V31.9172C36.9933 30.9359 36.8386 30.2212 36.5293 29.7732C36.2306 29.3146 35.7773 29.0852 35.1693 29.0852C34.5399 29.0852 33.9746 29.3039 33.4733 29.7412C32.9826 30.1786 32.6359 30.7546 32.4333 31.4692V36.5732H31.3453V28.2372H32.3373V30.1252C32.6786 29.4852 33.1266 28.9892 33.6813 28.6372C34.2359 28.2746 34.8493 28.0932 35.5213 28.0932C36.2146 28.0932 36.7746 28.2959 37.2013 28.7012C37.6279 29.0959 37.8893 29.6079 37.9853 30.2372C38.7533 28.8079 39.8253 28.0932 41.2013 28.0932C42.1399 28.0932 42.7959 28.4239 43.1693 29.0852C43.5533 29.7359 43.7453 30.6052 43.7453 31.6932V36.5732ZM49.6484 36.7332C48.8484 36.7332 48.1337 36.5359 47.5044 36.1412C46.8751 35.7466 46.3791 35.2186 46.0164 34.5572C45.6537 33.8959 45.4724 33.1706 45.4724 32.3812C45.4724 31.6026 45.6484 30.8879 46.0004 30.2372C46.3631 29.5866 46.8591 29.0692 47.4884 28.6852C48.1177 28.2906 48.8324 28.0932 49.6324 28.0932C50.4537 28.0932 51.1737 28.2906 51.7924 28.6852C52.4111 29.0799 52.8911 29.6026 53.2324 30.2532C53.5844 30.8932 53.7604 31.5972 53.7604 32.3652C53.7604 32.5359 53.7551 32.6799 53.7444 32.7972H46.6084C46.6617 33.3946 46.8324 33.9279 47.1204 34.3972C47.4084 34.8559 47.7764 35.2239 48.2244 35.5012C48.6724 35.7679 49.1631 35.9012 49.6964 35.9012C50.2404 35.9012 50.7524 35.7626 51.2324 35.4852C51.7124 35.2079 52.0537 34.8452 52.2564 34.3972L53.2004 34.6532C53.0297 35.0586 52.7631 35.4212 52.4004 35.7412C52.0484 36.0506 51.6377 36.2959 51.1684 36.4772C50.6991 36.6479 50.1924 36.7332 49.6484 36.7332ZM46.5764 32.0132H52.7364C52.6937 31.4159 52.5284 30.8879 52.2404 30.4292C51.9524 29.9599 51.5844 29.5972 51.1364 29.3412C50.6884 29.0746 50.1924 28.9412 49.6484 28.9412C49.1044 28.9412 48.6084 29.0746 48.1604 29.3412C47.7124 29.5972 47.3444 29.9599 47.0564 30.4292C46.7791 30.8879 46.6191 31.4159 46.5764 32.0132ZM63.5171 36.1732C63.3891 36.2266 63.1545 36.3226 62.8131 36.4612C62.4718 36.5999 62.0771 36.6692 61.6291 36.6692C61.1598 36.6692 60.7491 36.5359 60.3971 36.2692C60.0451 36.0026 59.8691 35.6026 59.8691 35.0692V29.1012H58.7171V28.2372H59.8691V25.4212H60.9571V28.2372H62.8771V29.1012H60.9571V34.7652C60.9785 35.0746 61.0851 35.3039 61.2771 35.4532C61.4798 35.5919 61.7091 35.6612 61.9651 35.6612C62.2638 35.6612 62.5305 35.6132 62.7651 35.5172C63.0105 35.4106 63.1651 35.3359 63.2291 35.2932L63.5171 36.1732ZM68.2879 36.7332C67.4879 36.7332 66.7732 36.5359 66.1439 36.1412C65.5252 35.7466 65.0399 35.2239 64.6879 34.5732C64.3359 33.9119 64.1599 33.1972 64.1599 32.4292C64.1599 31.6506 64.3359 30.9359 64.6879 30.2852C65.0506 29.6239 65.5412 29.0959 66.1599 28.7012C66.7892 28.2959 67.4986 28.0932 68.2879 28.0932C69.0879 28.0932 69.7972 28.2959 70.4159 28.7012C71.0452 29.0959 71.5359 29.6239 71.8879 30.2852C72.2506 30.9359 72.4319 31.6506 72.4319 32.4292C72.4319 33.1972 72.2559 33.9119 71.9039 34.5732C71.5519 35.2239 71.0612 35.7466 70.4319 36.1412C69.8132 36.5359 69.0986 36.7332 68.2879 36.7332ZM65.2639 32.4452C65.2639 33.0639 65.3972 33.6292 65.6639 34.1412C65.9412 34.6426 66.3092 35.0426 66.7679 35.3412C67.2266 35.6292 67.7332 35.7732 68.2879 35.7732C68.8426 35.7732 69.3492 35.6239 69.8079 35.3252C70.2666 35.0266 70.6346 34.6212 70.9119 34.1092C71.1892 33.5972 71.3279 33.0319 71.3279 32.4132C71.3279 31.7946 71.1892 31.2292 70.9119 30.7172C70.6346 30.2052 70.2666 29.7999 69.8079 29.5012C69.3492 29.2026 68.8426 29.0532 68.2879 29.0532C67.7439 29.0532 67.2426 29.2079 66.7839 29.5172C66.3252 29.8159 65.9572 30.2212 65.6799 30.7332C65.4026 31.2452 65.2639 31.8159 65.2639 32.4452ZM81.9456 36.7332C81.135 36.7332 80.415 36.5359 79.7856 36.1412C79.1563 35.7359 78.6603 35.2079 78.2976 34.5572C77.935 33.8959 77.7536 33.1706 77.7536 32.3812C77.7536 31.5919 77.9296 30.8772 78.2816 30.2372C78.6336 29.5866 79.1243 29.0692 79.7536 28.6852C80.383 28.2906 81.1083 28.0932 81.9296 28.0932C82.7083 28.0932 83.391 28.2746 83.9776 28.6372C84.575 28.9892 85.023 29.4692 85.3216 30.0772L84.2656 30.4132C84.031 29.9866 83.7003 29.6559 83.2736 29.4212C82.8576 29.1759 82.3936 29.0532 81.8816 29.0532C81.3163 29.0532 80.8043 29.1972 80.3456 29.4852C79.8976 29.7732 79.535 30.1732 79.2576 30.6852C78.991 31.1866 78.8576 31.7519 78.8576 32.3812C78.8576 33.0106 78.9963 33.5812 79.2736 34.0932C79.551 34.6052 79.919 35.0159 80.3776 35.3252C80.8363 35.6239 81.343 35.7732 81.8976 35.7732C82.2603 35.7732 82.6123 35.7092 82.9536 35.5812C83.295 35.4532 83.5883 35.2826 83.8336 35.0692C84.079 34.8452 84.2443 34.6052 84.3296 34.3492L85.4016 34.6692C85.2523 35.0639 85.007 35.4212 84.6656 35.7412C84.3243 36.0506 83.919 36.2959 83.4496 36.4772C82.9803 36.6479 82.479 36.7332 81.9456 36.7332ZM90.5848 36.7332C89.7848 36.7332 89.0701 36.5359 88.4408 36.1412C87.8221 35.7466 87.3368 35.2239 86.9848 34.5732C86.6328 33.9119 86.4568 33.1972 86.4568 32.4292C86.4568 31.6506 86.6328 30.9359 86.9848 30.2852C87.3474 29.6239 87.8381 29.0959 88.4568 28.7012C89.0861 28.2959 89.7954 28.0932 90.5848 28.0932C91.3848 28.0932 92.0941 28.2959 92.7128 28.7012C93.3421 29.0959 93.8328 29.6239 94.1848 30.2852C94.5474 30.9359 94.7288 31.6506 94.7288 32.4292C94.7288 33.1972 94.5528 33.9119 94.2008 34.5732C93.8488 35.2239 93.3581 35.7466 92.7288 36.1412C92.1101 36.5359 91.3954 36.7332 90.5848 36.7332ZM87.5608 32.4452C87.5608 33.0639 87.6941 33.6292 87.9608 34.1412C88.2381 34.6426 88.6061 35.0426 89.0648 35.3412C89.5234 35.6292 90.0301 35.7732 90.5848 35.7732C91.1394 35.7732 91.6461 35.6239 92.1048 35.3252C92.5634 35.0266 92.9314 34.6212 93.2088 34.1092C93.4861 33.5972 93.6248 33.0319 93.6248 32.4132C93.6248 31.7946 93.4861 31.2292 93.2088 30.7172C92.9314 30.2052 92.5634 29.7999 92.1048 29.5012C91.6461 29.2026 91.1394 29.0532 90.5848 29.0532C90.0408 29.0532 89.5394 29.2079 89.0808 29.5172C88.6221 29.8159 88.2541 30.2212 87.9768 30.7332C87.6994 31.2452 87.5608 31.8159 87.5608 32.4452ZM108.948 36.5732H107.86V31.9172C107.86 30.9572 107.706 30.2479 107.396 29.7892C107.087 29.3199 106.628 29.0852 106.02 29.0852C105.38 29.0852 104.815 29.3092 104.324 29.7572C103.834 30.2052 103.487 30.7812 103.284 31.4852V36.5732H102.196V31.9172C102.196 30.9359 102.042 30.2212 101.732 29.7732C101.434 29.3146 100.98 29.0852 100.372 29.0852C99.7431 29.0852 99.1777 29.3039 98.6764 29.7412C98.1857 30.1786 97.8391 30.7546 97.6364 31.4692V36.5732H96.5484V28.2372H97.5404V30.1252C97.8817 29.4852 98.3297 28.9892 98.8844 28.6372C99.4391 28.2746 100.052 28.0932 100.724 28.0932C101.418 28.0932 101.978 28.2959 102.404 28.7012C102.831 29.0959 103.092 29.6079 103.188 30.2372C103.956 28.8079 105.028 28.0932 106.404 28.0932C107.343 28.0932 107.999 28.4239 108.372 29.0852C108.756 29.7359 108.948 30.6052 108.948 31.6932V36.5732ZM114.852 36.7332C114.052 36.7332 113.337 36.5359 112.708 36.1412C112.078 35.7466 111.582 35.2186 111.22 34.5572C110.857 33.8959 110.676 33.1706 110.676 32.3812C110.676 31.6026 110.852 30.8879 111.204 30.2372C111.566 29.5866 112.062 29.0692 112.692 28.6852C113.321 28.2906 114.036 28.0932 114.836 28.0932C115.657 28.0932 116.377 28.2906 116.996 28.6852C117.614 29.0799 118.094 29.6026 118.436 30.2532C118.788 30.8932 118.964 31.5972 118.964 32.3652C118.964 32.5359 118.958 32.6799 118.948 32.7972H111.812C111.865 33.3946 112.036 33.9279 112.324 34.3972C112.612 34.8559 112.98 35.2239 113.428 35.5012C113.876 35.7679 114.366 35.9012 114.9 35.9012C115.444 35.9012 115.956 35.7626 116.436 35.4852C116.916 35.2079 117.257 34.8452 117.46 34.3972L118.404 34.6532C118.233 35.0586 117.966 35.4212 117.604 35.7412C117.252 36.0506 116.841 36.2959 116.372 36.4772C115.902 36.6479 115.396 36.7332 114.852 36.7332ZM111.78 32.0132H117.94C117.897 31.4159 117.732 30.8879 117.444 30.4292C117.156 29.9599 116.788 29.5972 116.34 29.3412C115.892 29.0746 115.396 28.9412 114.852 28.9412C114.308 28.9412 113.812 29.0746 113.364 29.3412C112.916 29.5972 112.548 29.9599 112.26 30.4292C111.982 30.8879 111.822 31.4159 111.78 32.0132ZM124.64 33.1332V28.2372H125.728V32.9412C125.728 34.8292 126.374 35.7732 127.664 35.7732C128.304 35.7732 128.902 35.5652 129.456 35.1492C130.022 34.7332 130.427 34.1786 130.672 33.4852V28.2372H131.76V35.2612C131.76 35.5492 131.888 35.6986 132.144 35.7092V36.5732C132.016 36.5946 131.915 36.6052 131.84 36.6052C131.776 36.6052 131.707 36.6052 131.632 36.6052C131.408 36.5839 131.216 36.4986 131.056 36.3492C130.907 36.1999 130.832 36.0186 130.832 35.8052L130.8 34.6852C130.438 35.3359 129.942 35.8426 129.312 36.2052C128.694 36.5572 128.022 36.7332 127.296 36.7332C125.526 36.7332 124.64 35.5332 124.64 33.1332ZM138.476 36.7332C137.783 36.7332 137.159 36.5519 136.604 36.1892C136.06 35.8266 135.628 35.3786 135.308 34.8452V39.9812H134.22V28.2372H135.196V29.8532C135.527 29.3306 135.964 28.9092 136.508 28.5892C137.063 28.2586 137.66 28.0932 138.3 28.0932C138.876 28.0932 139.404 28.2159 139.884 28.4612C140.364 28.6959 140.78 29.0159 141.132 29.4212C141.495 29.8266 141.772 30.2906 141.964 30.8132C142.156 31.3252 142.252 31.8586 142.252 32.4132C142.252 33.1919 142.092 33.9119 141.772 34.5732C141.463 35.2239 141.02 35.7466 140.444 36.1412C139.879 36.5359 139.223 36.7332 138.476 36.7332ZM138.172 35.7732C138.78 35.7732 139.303 35.6132 139.74 35.2932C140.188 34.9626 140.535 34.5412 140.78 34.0292C141.026 33.5172 141.148 32.9786 141.148 32.4132C141.148 31.8159 141.01 31.2612 140.732 30.7492C140.455 30.2372 140.082 29.8266 139.612 29.5172C139.154 29.2079 138.631 29.0532 138.044 29.0532C137.682 29.0532 137.298 29.1492 136.892 29.3412C136.498 29.5226 136.146 29.7732 135.836 30.0932C135.538 30.4026 135.362 30.7439 135.308 31.1172V33.6772C135.554 34.2639 135.938 34.7599 136.46 35.1652C136.983 35.5706 137.554 35.7732 138.172 35.7732ZM158.216 28.2372H159.288L155.704 36.5732H154.76L153.016 32.4292L151.288 36.5732H150.344L146.76 28.2372H147.816L150.856 35.4532L152.392 31.6932L150.984 28.2532H151.96L153.016 30.9572L154.088 28.2532H155.048L153.656 31.6932L155.192 35.4532L158.216 28.2372ZM160.736 26.4932V24.8932H161.824V26.4932H160.736ZM160.736 36.5732V28.2372H161.824V36.5732H160.736ZM168.22 36.1732C168.092 36.2266 167.858 36.3226 167.516 36.4612C167.175 36.5999 166.78 36.6692 166.332 36.6692C165.863 36.6692 165.452 36.5359 165.1 36.2692C164.748 36.0026 164.572 35.6026 164.572 35.0692V29.1012H163.42V28.2372H164.572V25.4212H165.66V28.2372H167.58V29.1012H165.66V34.7652C165.682 35.0746 165.788 35.3039 165.98 35.4532C166.183 35.5919 166.412 35.6612 166.668 35.6612C166.967 35.6612 167.234 35.6132 167.468 35.5172C167.714 35.4106 167.868 35.3359 167.932 35.2932L168.22 36.1732ZM176.588 36.5732H175.5V31.9172C175.5 30.0292 174.86 29.0852 173.58 29.0852C173.164 29.0852 172.758 29.1919 172.364 29.4052C171.969 29.6079 171.617 29.8906 171.308 30.2532C171.009 30.6052 170.796 31.0106 170.668 31.4692V36.5732H169.58V24.8932H170.668V30.1252C170.998 29.5066 171.457 29.0159 172.044 28.6532C172.641 28.2799 173.276 28.0932 173.948 28.0932C174.588 28.0932 175.1 28.2479 175.484 28.5572C175.868 28.8559 176.145 29.2772 176.316 29.8212C176.497 30.3546 176.588 30.9786 176.588 31.6932V36.5732ZM185.722 36.7332C185.039 36.7332 184.405 36.6212 183.818 36.3972C183.242 36.1626 182.735 35.8212 182.298 35.3732L182.746 34.6052C183.215 35.0426 183.685 35.3626 184.154 35.5652C184.634 35.7572 185.141 35.8532 185.674 35.8532C186.314 35.8532 186.837 35.7252 187.242 35.4692C187.658 35.2026 187.866 34.8239 187.866 34.3332C187.866 34.0026 187.765 33.7519 187.562 33.5812C187.37 33.3999 187.087 33.2559 186.714 33.1492C186.351 33.0426 185.914 32.9199 185.402 32.7812C184.826 32.6212 184.341 32.4559 183.946 32.2852C183.562 32.1039 183.269 31.8799 183.066 31.6132C182.874 31.3359 182.778 30.9786 182.778 30.5412C182.778 30.0079 182.911 29.5599 183.178 29.1972C183.455 28.8346 183.829 28.5626 184.298 28.3812C184.778 28.1892 185.311 28.0932 185.898 28.0932C186.538 28.0932 187.103 28.1946 187.594 28.3972C188.085 28.5999 188.485 28.8826 188.794 29.2452L188.266 29.9812C187.978 29.6399 187.621 29.3892 187.194 29.2292C186.778 29.0586 186.325 28.9732 185.834 28.9732C185.493 28.9732 185.167 29.0212 184.858 29.1172C184.549 29.2026 184.293 29.3519 184.09 29.5652C183.898 29.7679 183.802 30.0506 183.802 30.4132C183.802 30.8612 183.967 31.1706 184.298 31.3412C184.629 31.5119 185.13 31.6932 185.802 31.8852C186.431 32.0559 186.981 32.2266 187.45 32.3972C187.919 32.5679 188.282 32.7972 188.538 33.0852C188.794 33.3626 188.922 33.7519 188.922 34.2532C188.922 35.0319 188.629 35.6399 188.042 36.0772C187.455 36.5146 186.682 36.7332 185.722 36.7332ZM194.272 36.7332C193.472 36.7332 192.758 36.5359 192.128 36.1412C191.51 35.7466 191.024 35.2239 190.672 34.5732C190.32 33.9119 190.144 33.1972 190.144 32.4292C190.144 31.6506 190.32 30.9359 190.672 30.2852C191.035 29.6239 191.526 29.0959 192.144 28.7012C192.774 28.2959 193.483 28.0932 194.272 28.0932C195.072 28.0932 195.782 28.2959 196.4 28.7012C197.03 29.0959 197.52 29.6239 197.872 30.2852C198.235 30.9359 198.416 31.6506 198.416 32.4292C198.416 33.1972 198.24 33.9119 197.888 34.5732C197.536 35.2239 197.046 35.7466 196.416 36.1412C195.798 36.5359 195.083 36.7332 194.272 36.7332ZM191.248 32.4452C191.248 33.0639 191.382 33.6292 191.648 34.1412C191.926 34.6426 192.294 35.0426 192.752 35.3412C193.211 35.6292 193.718 35.7732 194.272 35.7732C194.827 35.7732 195.334 35.6239 195.792 35.3252C196.251 35.0266 196.619 34.6212 196.896 34.1092C197.174 33.5972 197.312 33.0319 197.312 32.4132C197.312 31.7946 197.174 31.2292 196.896 30.7172C196.619 30.2052 196.251 29.7999 195.792 29.5012C195.334 29.2026 194.827 29.0532 194.272 29.0532C193.728 29.0532 193.227 29.2079 192.768 29.5172C192.31 29.8159 191.942 30.2212 191.664 30.7332C191.387 31.2452 191.248 31.8159 191.248 32.4452ZM212.636 36.5732H211.548V31.9172C211.548 30.9572 211.393 30.2479 211.084 29.7892C210.775 29.3199 210.316 29.0852 209.708 29.0852C209.068 29.0852 208.503 29.3092 208.012 29.7572C207.521 30.2052 207.175 30.7812 206.972 31.4852V36.5732H205.884V31.9172C205.884 30.9359 205.729 30.2212 205.42 29.7732C205.121 29.3146 204.668 29.0852 204.06 29.0852C203.431 29.0852 202.865 29.3039 202.364 29.7412C201.873 30.1786 201.527 30.7546 201.324 31.4692V36.5732H200.236V28.2372H201.228V30.1252C201.569 29.4852 202.017 28.9892 202.572 28.6372C203.127 28.2746 203.74 28.0932 204.412 28.0932C205.105 28.0932 205.665 28.2959 206.092 28.7012C206.519 29.0959 206.78 29.6079 206.876 30.2372C207.644 28.8079 208.716 28.0932 210.092 28.0932C211.031 28.0932 211.687 28.4239 212.06 29.0852C212.444 29.7359 212.636 30.6052 212.636 31.6932V36.5732ZM218.539 36.7332C217.739 36.7332 217.024 36.5359 216.395 36.1412C215.766 35.7466 215.27 35.2186 214.907 34.5572C214.544 33.8959 214.363 33.1706 214.363 32.3812C214.363 31.6026 214.539 30.8879 214.891 30.2372C215.254 29.5866 215.75 29.0692 216.379 28.6852C217.008 28.2906 217.723 28.0932 218.523 28.0932C219.344 28.0932 220.064 28.2906 220.683 28.6852C221.302 29.0799 221.782 29.6026 222.123 30.2532C222.475 30.8932 222.651 31.5972 222.651 32.3652C222.651 32.5359 222.646 32.6799 222.635 32.7972H215.499C215.552 33.3946 215.723 33.9279 216.011 34.3972C216.299 34.8559 216.667 35.2239 217.115 35.5012C217.563 35.7679 218.054 35.9012 218.587 35.9012C219.131 35.9012 219.643 35.7626 220.123 35.4852C220.603 35.2079 220.944 34.8452 221.147 34.3972L222.091 34.6532C221.92 35.0586 221.654 35.4212 221.291 35.7412C220.939 36.0506 220.528 36.2959 220.059 36.4772C219.59 36.6479 219.083 36.7332 218.539 36.7332ZM215.467 32.0132H221.627C221.584 31.4159 221.419 30.8879 221.131 30.4292C220.843 29.9599 220.475 29.5972 220.027 29.3412C219.579 29.0746 219.083 28.9412 218.539 28.9412C217.995 28.9412 217.499 29.0746 217.051 29.3412C216.603 29.5972 216.235 29.9599 215.947 30.4292C215.67 30.8879 215.51 31.4159 215.467 32.0132ZM228.408 26.4932V24.8932H229.496V26.4932H228.408ZM228.408 36.5732V28.2372H229.496V36.5732H228.408ZM231.332 32.4292C231.332 31.6399 231.492 30.9199 231.812 30.2692C232.143 29.6079 232.596 29.0799 233.172 28.6852C233.748 28.2906 234.404 28.0932 235.14 28.0932C235.833 28.0932 236.452 28.2799 236.996 28.6532C237.551 29.0159 237.983 29.4586 238.292 29.9812V24.8932H239.38V35.2612C239.38 35.5492 239.508 35.6986 239.764 35.7092V36.5732C239.551 36.6052 239.385 36.6159 239.268 36.6052C239.033 36.5946 238.831 36.5092 238.66 36.3492C238.5 36.1786 238.42 35.9866 238.42 35.7732V34.9572C238.089 35.5012 237.641 35.9332 237.076 36.2532C236.511 36.5732 235.924 36.7332 235.316 36.7332C234.74 36.7332 234.207 36.6159 233.716 36.3812C233.225 36.1466 232.799 35.8266 232.436 35.4212C232.084 35.0159 231.812 34.5572 231.62 34.0452C231.428 33.5226 231.332 32.9839 231.332 32.4292ZM238.292 33.7092V31.1332C238.153 30.7492 237.929 30.4026 237.62 30.0932C237.311 29.7732 236.959 29.5226 236.564 29.3412C236.18 29.1492 235.796 29.0532 235.412 29.0532C234.815 29.0532 234.292 29.2186 233.844 29.5492C233.407 29.8692 233.065 30.2906 232.82 30.8132C232.575 31.3252 232.452 31.8639 232.452 32.4292C232.452 33.0266 232.585 33.5812 232.852 34.0932C233.129 34.6052 233.503 35.0159 233.972 35.3252C234.441 35.6239 234.969 35.7732 235.556 35.7732C235.919 35.7732 236.297 35.6826 236.692 35.5012C237.097 35.3092 237.449 35.0586 237.748 34.7492C238.057 34.4399 238.239 34.0932 238.292 33.7092ZM245.445 36.7332C244.645 36.7332 243.931 36.5359 243.301 36.1412C242.672 35.7466 242.176 35.2186 241.813 34.5572C241.451 33.8959 241.269 33.1706 241.269 32.3812C241.269 31.6026 241.445 30.8879 241.797 30.2372C242.16 29.5866 242.656 29.0692 243.285 28.6852C243.915 28.2906 244.629 28.0932 245.429 28.0932C246.251 28.0932 246.971 28.2906 247.589 28.6852C248.208 29.0799 248.688 29.6026 249.029 30.2532C249.381 30.8932 249.557 31.5972 249.557 32.3652C249.557 32.5359 249.552 32.6799 249.541 32.7972H242.405C242.459 33.3946 242.629 33.9279 242.917 34.3972C243.205 34.8559 243.573 35.2239 244.021 35.5012C244.469 35.7679 244.96 35.9012 245.493 35.9012C246.037 35.9012 246.549 35.7626 247.029 35.4852C247.509 35.2079 247.851 34.8452 248.053 34.3972L248.997 34.6532C248.827 35.0586 248.56 35.4212 248.197 35.7412C247.845 36.0506 247.435 36.2959 246.965 36.4772C246.496 36.6479 245.989 36.7332 245.445 36.7332ZM242.373 32.0132H248.533C248.491 31.4159 248.325 30.8879 248.037 30.4292C247.749 29.9599 247.381 29.5972 246.933 29.3412C246.485 29.0746 245.989 28.9412 245.445 28.9412C244.901 28.9412 244.405 29.0746 243.957 29.3412C243.509 29.5972 243.141 29.9599 242.853 30.4292C242.576 30.8879 242.416 31.4159 242.373 32.0132ZM250.564 34.1732C250.564 33.6612 250.713 33.2186 251.012 32.8452C251.311 32.4612 251.721 32.1626 252.244 31.9492C252.777 31.7359 253.391 31.6292 254.084 31.6292C254.489 31.6292 254.911 31.6666 255.348 31.7412C255.785 31.8052 256.175 31.8959 256.516 32.0132V31.3092C256.516 30.6052 256.308 30.0452 255.892 29.6292C255.476 29.2132 254.9 29.0052 254.164 29.0052C253.727 29.0052 253.289 29.0906 252.852 29.2612C252.415 29.4212 251.961 29.6612 251.492 29.9812L251.076 29.2132C251.62 28.8399 252.153 28.5626 252.676 28.3812C253.199 28.1892 253.732 28.0932 254.276 28.0932C255.3 28.0932 256.111 28.3866 256.708 28.9732C257.305 29.5599 257.604 30.3706 257.604 31.4052V35.2612C257.604 35.5492 257.737 35.6986 258.004 35.7092V36.5732C257.769 36.6052 257.604 36.6159 257.508 36.6052C257.241 36.5946 257.039 36.5092 256.9 36.3492C256.761 36.1892 256.687 36.0186 256.676 35.8372L256.66 35.2292C256.287 35.7092 255.801 36.0826 255.204 36.3492C254.607 36.6052 253.999 36.7332 253.38 36.7332C252.836 36.7332 252.351 36.6212 251.924 36.3972C251.497 36.1626 251.161 35.8532 250.916 35.4692C250.681 35.0746 250.564 34.6426 250.564 34.1732ZM256.148 34.8132C256.393 34.5252 256.516 34.2586 256.516 34.0132V32.7972C255.78 32.5092 255.012 32.3652 254.212 32.3652C253.433 32.3652 252.804 32.5199 252.324 32.8292C251.844 33.1386 251.604 33.5599 251.604 34.0932C251.604 34.5519 251.78 34.9679 252.132 35.3412C252.495 35.7146 252.996 35.9012 253.636 35.9012C254.159 35.9012 254.644 35.7999 255.092 35.5972C255.551 35.3946 255.903 35.1332 256.148 34.8132ZM262.691 36.7332C262.008 36.7332 261.373 36.6212 260.787 36.3972C260.211 36.1626 259.704 35.8212 259.267 35.3732L259.715 34.6052C260.184 35.0426 260.653 35.3626 261.123 35.5652C261.603 35.7572 262.109 35.8532 262.643 35.8532C263.283 35.8532 263.805 35.7252 264.211 35.4692C264.627 35.2026 264.835 34.8239 264.835 34.3332C264.835 34.0026 264.733 33.7519 264.531 33.5812C264.339 33.3999 264.056 33.2559 263.683 33.1492C263.32 33.0426 262.883 32.9199 262.371 32.7812C261.795 32.6212 261.309 32.4559 260.915 32.2852C260.531 32.1039 260.237 31.8799 260.035 31.6132C259.843 31.3359 259.747 30.9786 259.747 30.5412C259.747 30.0079 259.88 29.5599 260.147 29.1972C260.424 28.8346 260.797 28.5626 261.267 28.3812C261.747 28.1892 262.28 28.0932 262.867 28.0932C263.507 28.0932 264.072 28.1946 264.563 28.3972C265.053 28.5999 265.453 28.8826 265.763 29.2452L265.235 29.9812C264.947 29.6399 264.589 29.3892 264.163 29.2292C263.747 29.0586 263.293 28.9732 262.803 28.9732C262.461 28.9732 262.136 29.0212 261.827 29.1172C261.517 29.2026 261.261 29.3519 261.059 29.5652C260.867 29.7679 260.771 30.0506 260.771 30.4132C260.771 30.8612 260.936 31.1706 261.267 31.3412C261.597 31.5119 262.099 31.6932 262.771 31.8852C263.4 32.0559 263.949 32.2266 264.419 32.3972C264.888 32.5679 265.251 32.7972 265.507 33.0852C265.763 33.3626 265.891 33.7519 265.891 34.2532C265.891 35.0319 265.597 35.6399 265.011 36.0772C264.424 36.5146 263.651 36.7332 262.691 36.7332ZM267.529 36.5732V35.0052H268.473V36.5732H267.529Z" fill="#051101"/>
</svg>
