<svg width="329" height="17" viewBox="0 0 329 17" fill="none" xmlns="http://www.w3.org/2000/svg">
<path d="M12.3688 12.347C12.3688 13.183 12.1488 13.9017 11.7088 14.503C11.2688 15.1044 10.6821 15.5664 9.94876 15.889C9.2301 16.2117 8.43076 16.373 7.55076 16.373H0.0927638V0.753046H8.14476C8.8781 0.753046 9.50876 0.951046 10.0368 1.34705C10.5648 1.72838 10.9754 2.22705 11.2688 2.84305C11.5621 3.45905 11.7088 4.08971 11.7088 4.73505C11.7088 5.49771 11.5108 6.21638 11.1148 6.89105C10.7334 7.55105 10.1834 8.04238 9.46476 8.36505C10.3448 8.62905 11.0488 9.11305 11.5768 9.81705C12.1048 10.5064 12.3688 11.3497 12.3688 12.347ZM2.55676 2.88705V7.48505H7.08876C7.70476 7.48505 8.2181 7.27238 8.62876 6.84705C9.03943 6.40705 9.24476 5.85705 9.24476 5.19705C9.24476 4.52238 9.0541 3.97238 8.67276 3.54705C8.29143 3.10705 7.80743 2.88705 7.22076 2.88705H2.55676ZM9.83876 11.885C9.83876 11.2397 9.63343 10.675 9.22276 10.191C8.82676 9.70705 8.32076 9.46505 7.70476 9.46505H2.55676V14.239H7.55076C8.1961 14.239 8.73876 14.0117 9.17876 13.557C9.61876 13.0877 9.83876 12.5304 9.83876 11.885ZM14.9385 16.373V0.753046H21.7365C22.4405 0.753046 23.0858 0.899713 23.6725 1.19305C24.2591 1.48638 24.7651 1.87505 25.1905 2.35905C25.6305 2.84305 25.9678 3.38571 26.2025 3.98705C26.4518 4.58838 26.5765 5.20438 26.5765 5.83505C26.5765 6.53905 26.4445 7.20638 26.1805 7.83705C25.9311 8.45305 25.5791 8.98838 25.1245 9.44305C24.6698 9.89771 24.1345 10.2277 23.5185 10.433L27.1925 16.373H24.4205L21.0325 10.939H17.4025V16.373H14.9385ZM17.4025 8.76105H21.7145C22.1691 8.76105 22.5725 8.62905 22.9245 8.36505C23.2765 8.08638 23.5551 7.72705 23.7605 7.28705C23.9658 6.84705 24.0685 6.36305 24.0685 5.83505C24.0685 5.29238 23.9511 4.80838 23.7165 4.38305C23.4818 3.94305 23.1738 3.59105 22.7925 3.32705C22.4111 3.06305 22.0078 2.93105 21.5825 2.93105H17.4025V8.76105ZM29.4834 16.373V0.753046H31.9474V16.373H29.4834ZM37.9415 5.32905V16.373H35.4775V0.753046H37.5015L46.3455 12.039V0.775046H48.8315V16.373H46.6755L37.9415 5.32905ZM58.7228 16.483C57.6814 16.483 56.7134 16.2704 55.8188 15.845C54.9388 15.4197 54.1614 14.833 53.4868 14.085C52.8268 13.337 52.3061 12.4864 51.9248 11.533C51.5581 10.5797 51.3748 9.56771 51.3748 8.49705C51.3748 7.44105 51.5581 6.44371 51.9248 5.50505C52.2914 4.55171 52.8121 3.71571 53.4868 2.99705C54.1614 2.26371 54.9461 1.69171 55.8408 1.28105C56.7501 0.855713 57.7401 0.643046 58.8108 0.643046C60.2921 0.643046 61.5388 0.958379 62.5508 1.58905C63.5628 2.20505 64.3328 3.02638 64.8608 4.05305L62.9688 5.41705C62.5434 4.56638 61.9568 3.92838 61.2088 3.50305C60.4608 3.07771 59.6394 2.86505 58.7448 2.86505C57.7621 2.86505 56.9041 3.13638 56.1708 3.67905C55.4374 4.20705 54.8728 4.90371 54.4768 5.76905C54.0808 6.63438 53.8828 7.56571 53.8828 8.56305C53.8828 9.61905 54.1028 10.5797 54.5428 11.445C54.9828 12.2957 55.5768 12.9777 56.3248 13.491C57.0874 14.0044 57.9528 14.261 58.9208 14.261C60.5341 14.261 61.9861 13.491 63.2768 11.951V10.301H59.9988V8.47505H65.3448V16.373H63.2768V14.437C61.9714 15.801 60.4534 16.483 58.7228 16.483ZM73.5908 16.373V0.753046H80.1468C80.8508 0.753046 81.4961 0.899713 82.0828 1.19305C82.6841 1.48638 83.1975 1.87505 83.6228 2.35905C84.0628 2.84305 84.4001 3.38571 84.6348 3.98705C84.8695 4.58838 84.9868 5.20438 84.9868 5.83505C84.9868 6.71505 84.7888 7.54371 84.3928 8.32105C83.9968 9.09838 83.4468 9.72905 82.7428 10.213C82.0388 10.697 81.2175 10.939 80.2788 10.939H76.0548V16.373H73.5908ZM76.0548 8.76105H80.1248C80.8141 8.76105 81.3788 8.48238 81.8188 7.92505C82.2588 7.36771 82.4788 6.67105 82.4788 5.83505C82.4788 5.26305 82.3615 4.76438 82.1268 4.33905C81.8921 3.89905 81.5841 3.55438 81.2028 3.30505C80.8361 3.05571 80.4328 2.93105 79.9928 2.93105H76.0548V8.76105ZM93.7878 16.483C92.6732 16.483 91.6538 16.263 90.7298 15.823C89.8205 15.383 89.0358 14.789 88.3758 14.041C87.7158 13.2784 87.2025 12.4277 86.8358 11.489C86.4838 10.5357 86.3078 9.56038 86.3078 8.56305C86.3078 7.52171 86.4985 6.53171 86.8798 5.59305C87.2612 4.63971 87.7892 3.79638 88.4638 3.06305C89.1385 2.31505 89.9305 1.72838 90.8398 1.30305C91.7638 0.863046 92.7612 0.643046 93.8318 0.643046C94.9465 0.643046 95.9585 0.87038 96.8678 1.32505C97.7918 1.77971 98.5765 2.38838 99.2218 3.15105C99.8818 3.91371 100.388 4.76438 100.74 5.70305C101.107 6.64171 101.29 7.60238 101.29 8.58505C101.29 9.62638 101.099 10.6237 100.718 11.577C100.351 12.5157 99.8305 13.359 99.1558 14.107C98.4812 14.8404 97.6818 15.4197 96.7578 15.845C95.8485 16.2704 94.8585 16.483 93.7878 16.483ZM88.8158 8.56305C88.8158 9.54571 89.0212 10.477 89.4318 11.357C89.8425 12.2224 90.4145 12.9264 91.1478 13.469C91.8958 13.997 92.7832 14.261 93.8098 14.261C94.5872 14.261 95.2838 14.0997 95.8998 13.777C96.5158 13.4544 97.0365 13.0217 97.4618 12.479C97.8872 11.9217 98.2098 11.3057 98.4298 10.631C98.6498 9.95638 98.7598 9.26705 98.7598 8.56305C98.7598 7.58038 98.5545 6.65638 98.1438 5.79105C97.7478 4.92571 97.1758 4.22905 96.4278 3.70105C95.6798 3.15838 94.8072 2.88705 93.8098 2.88705C93.0178 2.88705 92.3138 3.04838 91.6978 3.37105C91.0818 3.69371 90.5612 4.12638 90.1358 4.66905C89.7105 5.21171 89.3805 5.82038 89.1458 6.49505C88.9258 7.16971 88.8158 7.85905 88.8158 8.56305ZM108.783 0.819046H111.093L113.029 6.12105L114.987 0.819046H117.297L114.613 7.77105L116.945 13.513L121.807 0.753046H124.513L118.111 16.373H115.977L113.051 9.37705L110.103 16.373H107.947L101.567 0.753046H104.251L109.135 13.513L111.467 7.77105L108.783 0.819046ZM137.07 14.195V16.373H126.356V0.753046H136.872V2.93105H128.82V7.37505H135.794V9.42105H128.82V14.195H137.07ZM139.612 16.373V0.753046H146.41C147.114 0.753046 147.76 0.899713 148.346 1.19305C148.933 1.48638 149.439 1.87505 149.864 2.35905C150.304 2.84305 150.642 3.38571 150.876 3.98705C151.126 4.58838 151.25 5.20438 151.25 5.83505C151.25 6.53905 151.118 7.20638 150.854 7.83705C150.605 8.45305 150.253 8.98838 149.798 9.44305C149.344 9.89771 148.808 10.2277 148.192 10.433L151.866 16.373H149.094L145.706 10.939H142.076V16.373H139.612ZM142.076 8.76105H146.388C146.843 8.76105 147.246 8.62905 147.598 8.36505C147.95 8.08638 148.229 7.72705 148.434 7.28705C148.64 6.84705 148.742 6.36305 148.742 5.83505C148.742 5.29238 148.625 4.80838 148.39 4.38305C148.156 3.94305 147.848 3.59105 147.466 3.32705C147.085 3.06305 146.682 2.93105 146.256 2.93105H142.076V8.76105ZM170.389 2.93105H165.197V16.373H162.711V2.93105H157.497V0.753046H170.389V2.93105ZM178.565 16.483C177.451 16.483 176.431 16.263 175.507 15.823C174.598 15.383 173.813 14.789 173.153 14.041C172.493 13.2784 171.98 12.4277 171.613 11.489C171.261 10.5357 171.085 9.56038 171.085 8.56305C171.085 7.52171 171.276 6.53171 171.657 5.59305C172.039 4.63971 172.567 3.79638 173.241 3.06305C173.916 2.31505 174.708 1.72838 175.617 1.30305C176.541 0.863046 177.539 0.643046 178.609 0.643046C179.724 0.643046 180.736 0.87038 181.645 1.32505C182.569 1.77971 183.354 2.38838 183.999 3.15105C184.659 3.91371 185.165 4.76438 185.517 5.70305C185.884 6.64171 186.067 7.60238 186.067 8.58505C186.067 9.62638 185.877 10.6237 185.495 11.577C185.129 12.5157 184.608 13.359 183.933 14.107C183.259 14.8404 182.459 15.4197 181.535 15.845C180.626 16.2704 179.636 16.483 178.565 16.483ZM173.593 8.56305C173.593 9.54571 173.799 10.477 174.209 11.357C174.62 12.2224 175.192 12.9264 175.925 13.469C176.673 13.997 177.561 14.261 178.587 14.261C179.365 14.261 180.061 14.0997 180.677 13.777C181.293 13.4544 181.814 13.0217 182.239 12.479C182.665 11.9217 182.987 11.3057 183.207 10.631C183.427 9.95638 183.537 9.26705 183.537 8.56305C183.537 7.58038 183.332 6.65638 182.921 5.79105C182.525 4.92571 181.953 4.22905 181.205 3.70105C180.457 3.15838 179.585 2.88705 178.587 2.88705C177.795 2.88705 177.091 3.04838 176.475 3.37105C175.859 3.69371 175.339 4.12638 174.913 4.66905C174.488 5.21171 174.158 5.82038 173.923 6.49505C173.703 7.16971 173.593 7.85905 173.593 8.56305ZM194.403 0.753046L198.715 8.51905L203.071 0.753046H205.777L199.947 10.785V16.373H197.483V10.741L191.697 0.753046H194.403ZM213.198 16.483C212.083 16.483 211.064 16.263 210.14 15.823C209.231 15.383 208.446 14.789 207.786 14.041C207.126 13.2784 206.613 12.4277 206.246 11.489C205.894 10.5357 205.718 9.56038 205.718 8.56305C205.718 7.52171 205.909 6.53171 206.29 5.59305C206.671 4.63971 207.199 3.79638 207.874 3.06305C208.549 2.31505 209.341 1.72838 210.25 1.30305C211.174 0.863046 212.171 0.643046 213.242 0.643046C214.357 0.643046 215.369 0.87038 216.278 1.32505C217.202 1.77971 217.987 2.38838 218.632 3.15105C219.292 3.91371 219.798 4.76438 220.15 5.70305C220.517 6.64171 220.7 7.60238 220.7 8.58505C220.7 9.62638 220.509 10.6237 220.128 11.577C219.761 12.5157 219.241 13.359 218.566 14.107C217.891 14.8404 217.092 15.4197 216.168 15.845C215.259 16.2704 214.269 16.483 213.198 16.483ZM208.226 8.56305C208.226 9.54571 208.431 10.477 208.842 11.357C209.253 12.2224 209.825 12.9264 210.558 13.469C211.306 13.997 212.193 14.261 213.22 14.261C213.997 14.261 214.694 14.0997 215.31 13.777C215.926 13.4544 216.447 13.0217 216.872 12.479C217.297 11.9217 217.62 11.3057 217.84 10.631C218.06 9.95638 218.17 9.26705 218.17 8.56305C218.17 7.58038 217.965 6.65638 217.554 5.79105C217.158 4.92571 216.586 4.22905 215.838 3.70105C215.09 3.15838 214.217 2.88705 213.22 2.88705C212.428 2.88705 211.724 3.04838 211.108 3.37105C210.492 3.69371 209.971 4.12638 209.546 4.66905C209.121 5.21171 208.791 5.82038 208.556 6.49505C208.336 7.16971 208.226 7.85905 208.226 8.56305ZM229.763 16.483C228.531 16.483 227.482 16.2704 226.617 15.845C225.752 15.4197 225.055 14.8404 224.527 14.107C223.999 13.359 223.618 12.523 223.383 11.599C223.148 10.6604 223.031 9.68505 223.031 8.67305V0.753046H225.495V8.67305C225.495 9.39171 225.568 10.0884 225.715 10.763C225.862 11.423 226.096 12.017 226.419 12.545C226.742 13.073 227.174 13.491 227.717 13.799C228.274 14.107 228.956 14.261 229.763 14.261C230.584 14.261 231.266 14.107 231.809 13.799C232.366 13.4764 232.806 13.051 233.129 12.523C233.452 11.9804 233.679 11.379 233.811 10.719C233.958 10.059 234.031 9.37705 234.031 8.67305V0.753046H236.517V8.67305C236.517 9.74371 236.385 10.7484 236.121 11.687C235.872 12.6257 235.476 13.4544 234.933 14.173C234.405 14.8917 233.708 15.4564 232.843 15.867C231.992 16.2777 230.966 16.483 229.763 16.483ZM239.794 16.373V0.753046H246.592C247.296 0.753046 247.941 0.899713 248.528 1.19305C249.115 1.48638 249.621 1.87505 250.046 2.35905C250.486 2.84305 250.823 3.38571 251.058 3.98705C251.307 4.58838 251.432 5.20438 251.432 5.83505C251.432 6.53905 251.3 7.20638 251.036 7.83705C250.787 8.45305 250.435 8.98838 249.98 9.44305C249.525 9.89771 248.99 10.2277 248.374 10.433L252.048 16.373H249.276L245.888 10.939H242.258V16.373H239.794ZM242.258 8.76105H246.57C247.025 8.76105 247.428 8.62905 247.78 8.36505C248.132 8.08638 248.411 7.72705 248.616 7.28705C248.821 6.84705 248.924 6.36305 248.924 5.83505C248.924 5.29238 248.807 4.80838 248.572 4.38305C248.337 3.94305 248.029 3.59105 247.648 3.32705C247.267 3.06305 246.863 2.93105 246.438 2.93105H242.258V8.76105ZM269.014 4.42705C268.824 4.20705 268.508 3.97971 268.068 3.74505C267.643 3.49571 267.144 3.28305 266.572 3.10705C266 2.93105 265.406 2.84305 264.79 2.84305C263.749 2.84305 262.979 3.03371 262.48 3.41505C261.996 3.79638 261.754 4.32438 261.754 4.99905C261.754 5.49771 261.894 5.89371 262.172 6.18705C262.451 6.46571 262.876 6.70771 263.448 6.91305C264.02 7.10371 264.739 7.30171 265.604 7.50705C266.66 7.75638 267.57 8.05705 268.332 8.40905C269.11 8.74638 269.704 9.20105 270.114 9.77305C270.54 10.345 270.752 11.1004 270.752 12.039C270.752 13.1097 270.496 13.975 269.982 14.635C269.469 15.295 268.772 15.779 267.892 16.087C267.027 16.3804 266.074 16.527 265.032 16.527C263.844 16.527 262.693 16.3437 261.578 15.977C260.464 15.6104 259.466 15.0897 258.586 14.415L259.708 12.303C259.958 12.5524 260.354 12.8384 260.896 13.161C261.439 13.469 262.07 13.7404 262.788 13.975C263.522 14.195 264.284 14.305 265.076 14.305C266.044 14.305 266.792 14.1364 267.32 13.799C267.848 13.447 268.112 12.9484 268.112 12.303C268.112 11.775 267.936 11.357 267.584 11.049C267.247 10.7264 266.756 10.4624 266.11 10.257C265.48 10.037 264.717 9.80971 263.822 9.57505C262.796 9.31105 261.938 9.01038 261.248 8.67305C260.559 8.33571 260.038 7.91038 259.686 7.39705C259.349 6.88371 259.18 6.21638 259.18 5.39505C259.18 4.36838 259.43 3.50305 259.928 2.79905C260.427 2.08038 261.102 1.54505 261.952 1.19305C262.818 0.826379 263.786 0.643046 264.856 0.643046C265.912 0.643046 266.888 0.811713 267.782 1.14905C268.677 1.48638 269.462 1.90438 270.136 2.40305L269.014 4.42705ZM284.686 2.93105H279.494V16.373H277.008V2.93105H271.794V0.753046H284.686V2.93105ZM297.494 14.195V16.373H286.78V0.753046H297.296V2.93105H289.244V7.37505H296.218V9.42105H289.244V14.195H297.494ZM300.036 16.373V0.753046H306.592C307.296 0.753046 307.941 0.899713 308.528 1.19305C309.129 1.48638 309.643 1.87505 310.068 2.35905C310.508 2.84305 310.845 3.38571 311.08 3.98705C311.315 4.58838 311.432 5.20438 311.432 5.83505C311.432 6.71505 311.234 7.54371 310.838 8.32105C310.442 9.09838 309.892 9.72905 309.188 10.213C308.484 10.697 307.663 10.939 306.724 10.939H302.5V16.373H300.036ZM302.5 8.76105H306.57C307.259 8.76105 307.824 8.48238 308.264 7.92505C308.704 7.36771 308.924 6.67105 308.924 5.83505C308.924 5.26305 308.807 4.76438 308.572 4.33905C308.337 3.89905 308.029 3.55438 307.648 3.30505C307.281 3.05571 306.878 2.93105 306.438 2.93105H302.5V8.76105ZM322.983 4.42705C322.792 4.20705 322.477 3.97971 322.037 3.74505C321.612 3.49571 321.113 3.28305 320.541 3.10705C319.969 2.93105 319.375 2.84305 318.759 2.84305C317.718 2.84305 316.948 3.03371 316.449 3.41505C315.965 3.79638 315.723 4.32438 315.723 4.99905C315.723 5.49771 315.862 5.89371 316.141 6.18705C316.42 6.46571 316.845 6.70771 317.417 6.91305C317.989 7.10371 318.708 7.30171 319.573 7.50705C320.629 7.75638 321.538 8.05705 322.301 8.40905C323.078 8.74638 323.672 9.20105 324.083 9.77305C324.508 10.345 324.721 11.1004 324.721 12.039C324.721 13.1097 324.464 13.975 323.951 14.635C323.438 15.295 322.741 15.779 321.861 16.087C320.996 16.3804 320.042 16.527 319.001 16.527C317.813 16.527 316.662 16.3437 315.547 15.977C314.432 15.6104 313.435 15.0897 312.555 14.415L313.677 12.303C313.926 12.5524 314.322 12.8384 314.865 13.161C315.408 13.469 316.038 13.7404 316.757 13.975C317.49 14.195 318.253 14.305 319.045 14.305C320.013 14.305 320.761 14.1364 321.289 13.799C321.817 13.447 322.081 12.9484 322.081 12.303C322.081 11.775 321.905 11.357 321.553 11.049C321.216 10.7264 320.724 10.4624 320.079 10.257C319.448 10.037 318.686 9.80971 317.791 9.57505C316.764 9.31105 315.906 9.01038 315.217 8.67305C314.528 8.33571 314.007 7.91038 313.655 7.39705C313.318 6.88371 313.149 6.21638 313.149 5.39505C313.149 4.36838 313.398 3.50305 313.897 2.79905C314.396 2.08038 315.07 1.54505 315.921 1.19305C316.786 0.826379 317.754 0.643046 318.825 0.643046C319.881 0.643046 320.856 0.811713 321.751 1.14905C322.646 1.48638 323.43 1.90438 324.105 2.40305L322.983 4.42705ZM326.774 16.373V13.557H328.776V16.373H326.774Z" fill="#5CBE3A"/>
</svg>
