<svg width="394" height="46" viewBox="0 0 394 46" fill="none" xmlns="http://www.w3.org/2000/svg">
<path d="M19.6698 1.71727H27.4778L32.4188 16.0523L37.4208 1.71727H45.1678L37.7258 21.4203L43.2158 35.2063L55.4768 1.59527H64.6268L47.3028 44.9053H40.0438L32.4188 26.7273L24.8548 44.9053H17.5958L0.332764 1.59527H9.36076L21.6828 35.2063L27.0508 21.4203L19.6698 1.71727ZM62.5599 35.4503C62.5599 33.3763 63.1292 31.5666 64.2679 30.0213C65.4472 28.4353 67.0739 27.2153 69.1479 26.3613C71.2219 25.5073 73.6009 25.0803 76.2849 25.0803C77.6269 25.0803 78.9892 25.2023 80.3719 25.4463C81.7546 25.6496 82.9542 25.9546 83.9709 26.3613V24.6533C83.9709 22.6199 83.3609 21.0543 82.1409 19.9563C80.9616 18.8583 79.1926 18.3093 76.8339 18.3093C75.0852 18.3093 73.4179 18.6143 71.8319 19.2243C70.2459 19.8343 68.5786 20.7289 66.8299 21.9083L64.2069 16.5403C66.3216 15.1576 68.4769 14.1206 70.6729 13.4293C72.9096 12.7379 75.2479 12.3923 77.6879 12.3923C82.2426 12.3923 85.7806 13.5309 88.3019 15.8083C90.8639 18.0856 92.1449 21.3389 92.1449 25.5683V35.7553C92.1449 36.6499 92.2872 37.2803 92.5719 37.6463C92.8566 37.9716 93.3649 38.1749 94.0969 38.2563V44.9053C93.3649 45.0679 92.6939 45.1696 92.0839 45.2103C91.5146 45.2916 91.0266 45.3323 90.6199 45.3323C88.9932 45.3323 87.7529 44.9663 86.8989 44.2343C86.0449 43.5023 85.5366 42.6076 85.3739 41.5503L85.1909 39.9033C83.7676 41.7333 82.0189 43.1363 79.9449 44.1123C77.9116 45.0476 75.8172 45.5153 73.6619 45.5153C71.5066 45.5153 69.5952 45.0883 67.9279 44.2343C66.2606 43.3396 64.9389 42.1399 63.9629 40.6353C63.0276 39.0899 62.5599 37.3616 62.5599 35.4503ZM82.4459 37.0973C83.4626 36.1213 83.9709 35.1859 83.9709 34.2913V31.0583C81.8562 30.2043 79.7212 29.7773 77.5659 29.7773C75.4106 29.7773 73.6619 30.2449 72.3199 31.1803C70.9779 32.0749 70.3069 33.2746 70.3069 34.7793C70.3069 35.9993 70.7949 37.0973 71.7709 38.0733C72.7469 39.0493 74.1499 39.5373 75.9799 39.5373C77.1999 39.5373 78.3792 39.3136 79.5179 38.8663C80.6972 38.4189 81.6732 37.8293 82.4459 37.0973ZM99.7223 0.375272H107.896V34.6573C107.896 36.1619 108.14 37.1583 108.628 37.6463C109.116 38.1343 109.787 38.3783 110.641 38.3783C111.292 38.3783 111.963 38.2969 112.654 38.1343C113.346 37.9716 113.956 37.7683 114.484 37.5243L115.582 43.7463C114.484 44.2749 113.203 44.6816 111.739 44.9663C110.275 45.2509 108.954 45.3933 107.774 45.3933C105.212 45.3933 103.22 44.7223 101.796 43.3803C100.414 41.9976 99.7223 40.0456 99.7223 37.5243V0.375272ZM140.982 44.9053L131.649 31.1193L127.318 35.3893V44.9053H119.144V0.375272H127.318V27.3373L140.189 13.0023H148.851L136.956 26.5443L149.705 44.9053H140.982ZM186.967 43.2583C185.869 43.7463 184.506 44.2343 182.88 44.7223C181.294 45.2103 179.647 45.4543 177.939 45.4543C176.434 45.4543 175.051 45.1899 173.791 44.6613C172.53 44.1326 171.513 43.2989 170.741 42.1603C170.009 40.9809 169.643 39.4559 169.643 37.5853V19.2243H165.434V12.9413H169.643V2.57127H177.817V12.9413H184.527V19.2243H177.817V34.8403C177.817 35.9383 178.101 36.7313 178.671 37.2193C179.281 37.7073 180.013 37.9513 180.867 37.9513C181.721 37.9513 182.554 37.8089 183.368 37.5243C184.181 37.2396 184.832 36.9956 185.32 36.7923L186.967 43.2583ZM220.931 44.9053H212.757V26.9713C212.757 24.4906 212.269 22.6403 211.293 21.4203C210.357 20.2003 209.056 19.5903 207.389 19.5903C206.372 19.5903 205.315 19.8749 204.217 20.4443C203.159 21.0136 202.183 21.8066 201.289 22.8233C200.435 23.7993 199.804 24.9379 199.398 26.2393V44.9053H191.224V0.375272H199.398V18.8583C200.577 16.8249 202.183 15.2389 204.217 14.1003C206.25 12.9616 208.466 12.3923 210.866 12.3923C213.59 12.3923 215.685 13.0023 217.149 14.2223C218.613 15.4423 219.609 17.0079 220.138 18.9193C220.666 20.8306 220.931 22.8436 220.931 24.9583V44.9053ZM242.861 45.5153C239.404 45.5153 236.415 44.7629 233.894 43.2583C231.413 41.7536 229.482 39.7609 228.099 37.2803C226.716 34.7589 226.025 32.0343 226.025 29.1063C226.025 26.0969 226.696 23.3316 228.038 20.8103C229.421 18.2483 231.373 16.2149 233.894 14.7103C236.415 13.1649 239.425 12.3923 242.922 12.3923C246.419 12.3923 249.408 13.1649 251.889 14.7103C254.37 16.2149 256.261 18.2279 257.562 20.7493C258.904 23.2299 259.575 25.9139 259.575 28.8013C259.575 29.8586 259.514 30.7736 259.392 31.5463H234.687C234.89 34.0269 235.805 35.9789 237.432 37.4023C239.099 38.8256 241.011 39.5373 243.166 39.5373C244.793 39.5373 246.318 39.1509 247.741 38.3783C249.205 37.5649 250.201 36.5076 250.73 35.2063L257.745 37.1583C256.566 39.5983 254.675 41.6113 252.072 43.1973C249.469 44.7426 246.399 45.5153 242.861 45.5153ZM234.504 26.3613H251.218C250.974 23.9619 250.059 22.0303 248.473 20.5663C246.928 19.0616 245.037 18.3093 242.8 18.3093C240.604 18.3093 238.713 19.0616 237.127 20.5663C235.582 22.0303 234.707 23.9619 234.504 26.3613ZM279.148 0.375272H287.322V34.6573C287.322 36.1619 287.566 37.1583 288.054 37.6463C288.542 38.1343 289.213 38.3783 290.067 38.3783C290.718 38.3783 291.389 38.2969 292.08 38.1343C292.771 37.9716 293.381 37.7683 293.91 37.5243L295.008 43.7463C293.91 44.2749 292.629 44.6816 291.165 44.9663C289.701 45.2509 288.379 45.3933 287.2 45.3933C284.638 45.3933 282.645 44.7223 281.222 43.3803C279.839 41.9976 279.148 40.0456 279.148 37.5243V0.375272ZM298.569 8.48827V0.375272H306.743V8.48827H298.569ZM298.569 44.9053V12.9413H306.743V44.9053H298.569ZM343.824 44.9053H335.65V26.9713C335.65 24.4093 335.203 22.5386 334.308 21.3593C333.414 20.1799 332.173 19.5903 330.587 19.5903C329.489 19.5903 328.371 19.8749 327.232 20.4443C326.134 21.0136 325.138 21.8066 324.243 22.8233C323.349 23.7993 322.698 24.9379 322.291 26.2393V44.9053H314.117V12.9413H321.498V18.8583C322.678 16.8656 324.386 15.2999 326.622 14.1613C328.859 12.9819 331.38 12.3923 334.186 12.3923C336.179 12.3923 337.806 12.7583 339.066 13.4903C340.327 14.1816 341.303 15.1373 341.994 16.3573C342.686 17.5366 343.153 18.8786 343.397 20.3833C343.682 21.8879 343.824 23.4129 343.824 24.9583V44.9053ZM365.755 45.5153C362.298 45.5153 359.309 44.7629 356.788 43.2583C354.307 41.7536 352.375 39.7609 350.993 37.2803C349.61 34.7589 348.919 32.0343 348.919 29.1063C348.919 26.0969 349.59 23.3316 350.932 20.8103C352.314 18.2483 354.266 16.2149 356.788 14.7103C359.309 13.1649 362.318 12.3923 365.816 12.3923C369.313 12.3923 372.302 13.1649 374.783 14.7103C377.263 16.2149 379.154 18.2279 380.456 20.7493C381.798 23.2299 382.469 25.9139 382.469 28.8013C382.469 29.8586 382.408 30.7736 382.286 31.5463H357.581C357.784 34.0269 358.699 35.9789 360.326 37.4023C361.993 38.8256 363.904 39.5373 366.06 39.5373C367.686 39.5373 369.211 39.1509 370.635 38.3783C372.099 37.5649 373.095 36.5076 373.624 35.2063L380.639 37.1583C379.459 39.5983 377.568 41.6113 374.966 43.1973C372.363 44.7426 369.293 45.5153 365.755 45.5153ZM357.398 26.3613H374.112C373.868 23.9619 372.953 22.0303 371.367 20.5663C369.821 19.0616 367.93 18.3093 365.694 18.3093C363.498 18.3093 361.607 19.0616 360.021 20.5663C358.475 22.0303 357.601 23.9619 357.398 26.3613ZM387.265 44.9053V36.1213H393.975V44.9053H387.265Z" fill="#051101"/>
</svg>
